<svg width="40" height="40" viewBox="0 0 40 40" fill="none" xmlns="http://www.w3.org/2000/svg">
<path fill-rule="evenodd" clip-rule="evenodd" d="M20 36C17.8989 36 15.8183 35.5861 13.8771 34.7821C11.9359 33.978 10.172 32.7994 8.68629 31.3137C7.20055 29.828 6.022 28.0641 5.21793 26.1229C4.41385 24.1817 4 22.1011 4 20C4 17.8988 4.41385 15.8183 5.21793 13.8771C6.022 11.9359 7.20055 10.172 8.68629 8.68629C10.172 7.20055 11.9359 6.022 13.8771 5.21793C15.8183 4.41385 17.8988 4 20 4C24.2435 4 28.3131 5.68571 31.3137 8.68629C34.3143 11.6869 36 15.7565 36 20C36 24.2435 34.3143 28.3131 31.3137 31.3137C28.3131 34.3143 24.2435 36 20 36ZM12.3463 38.4776C14.7728 39.4827 17.3736 40 20 40C25.3043 40 30.3914 37.8929 34.1421 34.1421C37.8929 30.3914 40 25.3043 40 20C40 14.6957 37.8929 9.60859 34.1421 5.85786C30.3914 2.10714 25.3043 0 20 0C17.3736 0 14.7728 0.517311 12.3463 1.52241C9.91982 2.5275 7.71504 4.0007 5.85786 5.85786C4.00069 7.71504 2.5275 9.91982 1.52241 12.3463C0.517316 14.7728 0 17.3736 0 20C0 22.6264 0.517316 25.2272 1.52241 27.6537C2.5275 30.0802 4.00069 32.285 5.85786 34.1421C7.71504 35.9993 9.91982 37.4725 12.3463 38.4776Z" fill="#38A169"/>
<path d="M16.7929 27.2054L10.2929 20.668C9.90237 20.2753 9.90237 19.6385 10.2929 19.2457L11.7071 17.8233C12.0976 17.4305 12.7308 17.4305 13.1213 17.8233L17.5 22.2272L26.8787 12.7946C27.2692 12.4018 27.9024 12.4018 28.2929 12.7946L29.7071 14.2169C30.0976 14.6097 30.0976 15.2465 29.7071 15.6393L18.2071 27.2054C17.8166 27.5982 17.1834 27.5982 16.7929 27.2054Z" fill="#38A169"/>
</svg>
