<svg width="32" height="40" viewBox="0 0 32 40" fill="none" xmlns="http://www.w3.org/2000/svg">
<g id="Layer_1" clip-path="url(#clip0_1933_4534)">
<path id="Vector" d="M23.5999 40H8.40006C5.92378 40 4.55933 40 3.27606 39.3458C2.13972 38.7671 1.2329 37.8603 0.654232 36.724C0 35.4407 0 34.0763 0 31.6V12.4002C0 9.92391 0 8.55948 0.654232 7.27623C1.2336 6.13991 2.13972 5.23309 3.27606 4.65443C4.13041 4.21922 5.05963 4.07438 6.17847 4.0254C6.41917 3.11089 6.89918 2.27264 7.5856 1.58623C8.60858 0.563262 9.96812 0 11.4144 0H20.5863C22.0326 0 23.3921 0.563262 24.4151 1.58553C25.1015 2.27194 25.5808 3.11019 25.8222 4.0247C26.9418 4.07298 27.8703 4.21782 28.7253 4.65373C29.8617 5.23309 30.7685 6.13991 31.3479 7.27623C32.0014 8.55948 32.0014 9.92321 32.0014 12.4002V31.6C32.0014 34.0763 32.0014 35.4407 31.3472 36.724C30.7685 37.8603 29.8617 38.7671 28.7253 39.3458C27.4421 40 26.0776 40 23.6013 40H23.5999ZM6.00004 8.0431C5.57812 8.07389 5.27094 8.12707 5.09182 8.21803C4.71327 8.41115 4.411 8.71342 4.21787 9.09196C3.99956 9.51948 3.99956 10.6656 3.99956 12.4002V31.6C3.99956 33.3346 3.99956 34.48 4.21787 34.9082C4.411 35.2868 4.71327 35.5891 5.09182 35.7822C5.52004 36.0005 6.66547 36.0005 8.40006 36.0005H23.5999C25.3345 36.0005 26.48 36.0005 26.9082 35.7822C27.2867 35.5891 27.589 35.2868 27.7821 34.9082C28.0004 34.48 28.0004 33.3346 28.0004 31.6V12.4002C28.0004 10.6656 28.0004 9.52018 27.7821 9.09196C27.589 8.71272 27.2867 8.41115 26.9082 8.21803C26.7291 8.12707 26.4226 8.07389 26 8.0431V10.0002C26 11.105 25.1043 11.9999 24.0002 11.9999H7.99983C6.89498 11.9999 6.00004 11.1043 6.00004 10.0002V8.0431ZM10.0003 8.00042H22.0004V5.41431C22.0004 5.03647 21.8535 4.68172 21.5862 4.41443C21.3231 4.15135 20.9585 4.00021 20.5863 4.00021H11.4144C11.0366 4.00021 10.6818 4.14715 10.4145 4.41443C10.1472 4.68172 10.0003 5.03647 10.0003 5.41431V8.00042ZM22.0004 30.0005H16.0004C14.8955 30.0005 14.0006 29.1049 14.0006 28.0008C14.0006 26.8966 14.8962 26.001 16.0004 26.001H22.0004C23.1052 26.001 24.0002 26.8966 24.0002 28.0008C24.0002 29.1049 23.1045 30.0005 22.0004 30.0005ZM10.0206 30.0005H10.0003C8.89546 30.0005 8.00053 29.1049 8.00053 28.0008C8.00053 26.8966 8.89616 26.001 10.0003 26.001H10.0206C11.1254 26.001 12.0204 26.8966 12.0204 28.0008C12.0204 29.1049 11.1247 30.0005 10.0206 30.0005ZM22.0004 22.0008H16.0004C14.8955 22.0008 14.0006 21.1052 14.0006 20.001C14.0006 18.8969 14.8962 18.0013 16.0004 18.0013H22.0004C23.1052 18.0013 24.0002 18.8969 24.0002 20.001C24.0002 21.1052 23.1045 22.0008 22.0004 22.0008ZM10.0206 22.0008H10.0003C8.89546 22.0008 8.00053 21.1052 8.00053 20.001C8.00053 18.8969 8.89616 18.0013 10.0003 18.0013H10.0206C11.1254 18.0013 12.0204 18.8969 12.0204 20.001C12.0204 21.1052 11.1247 22.0008 10.0206 22.0008Z" fill="#00325B"/>
</g>
<defs>
<clipPath id="clip0_1933_4534">
<rect width="32" height="40" fill="white"/>
</clipPath>
</defs>
</svg>
