<svg width="32" height="32" viewBox="0 0 32 32" fill="none" xmlns="http://www.w3.org/2000/svg">
<path d="M17.8667 32H14.1333C11.3646 32 9.83953 32 8.5086 31.3244C7.33027 30.7264 6.38993 29.7894 5.78933 28.6148C5.11127 27.2882 5.11127 25.7686 5.11127 23.0102V8.75012H3.5554C2.69627 8.75012 2 8.05634 2 7.20028C2 6.34422 2.69627 5.65044 3.5554 5.65044H8.65653L8.7228 5.45189C9.1778 4.09223 9.42793 3.34359 9.9954 2.66748C10.4952 2.07228 11.1425 1.60729 11.8672 1.32317C12.6909 1 13.4833 1 14.9211 1H17.0789C18.5167 1 19.3091 1 20.1323 1.32271C20.8571 1.60682 21.5043 2.07135 22.0041 2.66702C22.5716 3.34359 22.8222 4.09223 23.2772 5.45142L23.3435 5.64998H28.4446C29.3037 5.64998 30 6.34375 30 7.19981C30 8.05588 29.3037 8.74965 28.4446 8.74965H26.8892V23.0097C26.8892 25.7686 26.8892 27.2882 26.2111 28.6144C25.611 29.7885 24.6707 30.7254 23.4919 31.3239C22.1609 31.9995 20.6359 31.9995 17.8671 31.9995L17.8667 32ZM8.22207 8.75012V23.0097C8.22207 25.2887 8.22207 26.5437 8.56133 27.2073C8.8614 27.7941 9.3318 28.2628 9.92073 28.5618C10.5862 28.8999 11.8462 28.8999 14.1333 28.8999H17.8667C20.1538 28.8999 21.4133 28.8999 22.0793 28.5618C22.6687 28.2628 23.1386 27.7946 23.4387 27.2073C23.7779 26.5442 23.7779 25.2887 23.7779 23.0097V8.75012H22.2585C22.2342 8.75058 22.2099 8.75058 22.1857 8.75012H9.8148C9.79053 8.75058 9.7658 8.75058 9.74153 8.75012H8.22253H8.22207ZM11.9391 5.64998H20.0605C19.8827 5.1408 19.7483 4.81205 19.6171 4.65535C19.4505 4.45679 19.2349 4.30195 18.9932 4.20755C18.7188 4.10014 18.1014 4.10014 17.0785 4.10014H14.9206C13.8977 4.10014 13.2803 4.10014 13.0059 4.20755C12.7641 4.30241 12.5485 4.45726 12.3819 4.65581C12.2508 4.81205 12.1164 5.1408 11.9386 5.64998H11.9391ZM19.1108 25.7997C18.2517 25.7997 17.5554 25.1059 17.5554 24.2499V13.4001C17.5554 12.544 18.2517 11.8503 19.1108 11.8503C19.9699 11.8503 20.6662 12.544 20.6662 13.4001V24.2499C20.6662 25.1059 19.9699 25.7997 19.1108 25.7997ZM12.8887 25.7997C12.0296 25.7997 11.3333 25.1059 11.3333 24.2499V13.4001C11.3333 12.544 12.0296 11.8503 12.8887 11.8503C13.7479 11.8503 14.4441 12.544 14.4441 13.4001V24.2499C14.4441 25.1059 13.7479 25.7997 12.8887 25.7997Z" fill="#113455"/>
</svg>
