<svg width="24" height="24" viewBox="0 0 24 24" fill="none" xmlns="http://www.w3.org/2000/svg">
<g id="MenuIcons">
<path id="Vector" d="M15 17.25C15.4142 17.25 15.75 17.5858 15.75 18C15.75 18.4142 15.4142 18.75 15 18.75L8.99999 18.75C8.58579 18.75 8.24999 18.4142 8.24999 18C8.24999 17.5858 8.58579 17.25 8.99999 17.25L15 17.25Z" fill="#00325B"/>
<path id="Vector_2" fill-rule="evenodd" clip-rule="evenodd" d="M12 1.25C12.7251 1.25 13.3866 1.44911 14.1107 1.7871C14.8117 2.11428 15.6223 2.59716 16.6382 3.20233L18.0938 4.06943C19.2129 4.73606 20.1046 5.26727 20.7798 5.77524C21.4769 6.29963 22 6.8396 22.3409 7.55072C22.682 8.26219 22.7745 9.0068 22.7448 9.87584C22.7161 10.717 22.5689 11.7397 22.3844 13.0219L22.0921 15.0537C21.8547 16.7036 21.6663 18.0128 21.3849 19.0322C21.0948 20.0829 20.6831 20.9169 19.9403 21.5565C19.1982 22.1956 18.3102 22.4814 17.2237 22.6177C16.1685 22.75 14.8372 22.75 13.1577 22.75L10.8423 22.75C9.1628 22.75 7.8315 22.75 6.7763 22.6177C5.6898 22.4814 4.8018 22.1956 4.0596 21.5565C3.3169 20.9169 2.9052 20.0829 2.6151 19.0322C2.3337 18.0129 2.1453 16.7036 1.9079 15.0537L1.6156 13.0219C1.431 11.7396 1.2839 10.717 1.2552 9.87584C1.2255 9.0068 1.318 8.26219 1.6591 7.55072C2 6.8396 2.5231 6.29963 3.2201 5.77524C3.8953 5.26727 4.7871 4.73606 5.9062 4.06943L7.3618 3.20233C8.3777 2.59716 9.1883 2.11428 9.8893 1.7871C10.6134 1.44911 11.2749 1.25 12 1.25ZM15.9044 4.51121C14.8469 3.88126 14.1008 3.43781 13.4763 3.14633C12.8672 2.86203 12.4292 2.75 12 2.75C11.5707 2.75 11.1328 2.86203 10.5237 3.14633C9.8992 3.43781 9.1531 3.88126 8.0956 4.51121L6.7107 5.33615C5.5464 6.02973 4.7248 6.52034 4.1219 6.9739C3.5335 7.41662 3.2112 7.78294 3.0117 8.19917C2.8123 8.61505 2.7294 9.09337 2.7543 9.82469C2.7799 10.5745 2.9144 11.5163 3.1064 12.8511L3.3852 14.7884C3.6317 16.5016 3.8079 17.7162 4.061 18.633C4.3084 19.5289 4.6061 20.0476 5.0384 20.4198C5.4713 20.7926 6.0324 21.0127 6.963 21.1294C7.914 21.2486 9.1512 21.25 10.8939 21.25L13.1061 21.25C14.8488 21.25 16.0859 21.2486 17.037 21.1294C17.9675 21.0127 18.5287 20.7926 18.9616 20.4198C19.3939 20.0476 19.6916 19.5289 19.939 18.633C20.1921 17.7162 20.3683 16.5016 20.6148 14.7884L20.8936 12.851C21.0856 11.5163 21.2201 10.5745 21.2457 9.82469C21.2706 9.09337 21.1877 8.61505 20.9883 8.19917C20.7888 7.78294 20.4665 7.41662 19.8781 6.9739C19.2752 6.52034 18.4536 6.02973 17.2893 5.33615L15.9044 4.51121Z" fill="#00325B"/>
</g>
</svg>
