<svg width="20" height="20" viewBox="0 0 20 20" fill="none" xmlns="http://www.w3.org/2000/svg">
<g id="Icon-FilePDF">
<path id="&#229;&#189;&#162;&#231;&#138;&#182;" fill-rule="evenodd" clip-rule="evenodd" d="M11.6106 0C12.0894 0 12.5508 0.166487 12.915 0.466915L13.0469 0.58579L17.53 5C17.8687 5.3334 18.0754 5.77238 18.1171 6.23836L18.125 6.41421V18C18.125 19.0544 17.2964 19.9182 16.2453 19.9945L16.0938 20H3.90625C2.83541 20 1.95811 19.1841 1.88057 18.1493L1.875 18V2C1.875 0.945638 2.70363 0.0818349 3.75466 0.00548577L3.90625 0H11.6106ZM10 2H3.90625V18H16.0938V8H11.5234C10.7316 8 10.0808 7.40511 10.007 6.64446L10 6.5V2ZM11.0035 9.848C11.2471 11.3709 12.0561 12.7506 13.2738 13.7197C14.1747 14.4367 13.3507 15.8413 12.2699 15.4317C10.8086 14.8779 9.19065 14.8779 7.72945 15.4317C6.64828 15.8414 5.82485 14.4365 6.72563 13.7196C7.94336 12.7506 8.7523 11.3709 8.99585 9.8481C9.17602 8.7207 10.8235 8.722 11.0035 9.848ZM9.99878 12.1524L9.29922 13.3476H10.7008L9.99878 12.1524ZM12.0312 2.41421V6H15.6731L12.0312 2.41421Z" fill="#00325B"/>
</g>
</svg>
