<svg width="22" height="22" viewBox="0 0 22 22" fill="none" xmlns="http://www.w3.org/2000/svg">
<g id="Layer_1" clip-path="url(#clip0_1342_26487)">
<path id="Vector" d="M11.07 15.8984C9.75052 15.8984 8.51737 15.392 7.59784 14.4725C6.67832 13.5529 6.17188 12.3198 6.17188 11.0003C6.17188 9.6808 6.67832 8.44765 7.59784 7.52812C8.51737 6.60859 9.75052 6.10215 11.07 6.10215C12.3895 6.10215 13.6227 6.60859 14.5422 7.52812C15.4617 8.44765 15.9682 9.6808 15.9682 11.0003C15.9682 12.3198 15.4617 13.5529 14.5422 14.4725C13.6227 15.392 12.3895 15.8984 11.07 15.8984ZM14.3073 11C14.3073 9.18473 12.8853 7.76273 11.07 7.76273C9.25476 7.76273 7.83276 9.18473 7.83276 11C7.83276 12.8152 9.25476 14.2372 11.07 14.2372C12.8853 14.2372 14.3073 12.8152 14.3073 11Z" fill="#113455"/>
<path id="Vector_2" d="M21.078 13.3828L19.2503 13.9704L18.8967 14.8545L19.8119 16.5545L19.8141 16.5584C20.052 17.0344 19.9544 17.6503 19.5822 18.0225L17.9552 19.6496C17.5827 20.0221 16.967 20.1194 16.4911 19.8814L14.7872 18.964L13.903 19.3176L13.3142 21.1491C13.1501 21.6418 12.6613 21.999 12.1525 21.999H9.84724C9.29228 21.999 8.83283 21.6082 8.74893 21.0676L8.17049 19.2682C7.83032 19.2017 7.5176 19.0839 7.20001 18.9027L5.51258 19.8113L5.50862 19.8134C5.03269 20.0514 4.41672 19.9537 4.04452 19.5815L2.4175 17.9545C2.04499 17.582 1.94766 16.9663 2.18655 16.4883L3.0359 14.8551C2.9758 14.7011 2.91539 14.5348 2.85651 14.3734C2.79885 14.2151 2.73967 14.0519 2.68109 13.9021L0.849967 13.3136C0.357255 13.1494 0 12.6607 0 12.1518L0 9.84656C0 9.30931 0.370373 8.84222 0.921662 8.68358L2.74943 8.09598L3.10302 7.21185L2.18777 5.51191L2.18563 5.50795C1.94766 5.03201 2.04529 4.41605 2.4175 4.04384L4.04452 2.41682C4.41702 2.04432 5.03269 1.94699 5.50862 2.18496L7.21252 3.10235L8.09574 2.74906L8.68425 0.852348L8.68517 0.849297C8.8493 0.356583 9.33805 -0.000671387 9.84693 -0.000671387H12.1522C12.661 -0.000671387 13.1495 0.356888 13.3139 0.849297L13.9036 2.74906L14.7869 3.10235L16.4868 2.1871L16.4908 2.18496C16.9667 1.94699 17.5827 2.04462 17.9549 2.41682L19.5819 4.04384C19.9544 4.41635 20.0517 5.03201 19.8138 5.50795L18.8964 7.21185L19.2497 8.09507L21.1464 8.68358L21.1494 8.68449C21.6421 8.84863 21.9994 9.33738 21.9994 9.84626V12.1515C21.9994 12.7022 21.6034 13.2306 21.0777 13.3822L21.078 13.3828ZM17.9189 9.42402L17.8362 9.01124L17.2364 7.61151L16.9936 7.20666L18.2011 4.99296L17.0067 3.79855L14.793 5.00608L14.3805 4.75866C13.921 4.49628 13.4561 4.29676 12.9979 4.16527L12.5756 4.08076L11.8361 1.66082H10.1636L9.42408 4.08076L9.0113 4.16344L7.61157 4.76324L7.20672 5.00608L4.99302 3.79855L3.79862 4.99296L5.00614 7.20666L4.75872 7.61914C4.49635 8.0786 4.29682 8.54354 4.16533 9.00178L4.08082 9.42402L1.66088 10.1635L1.66088 11.8348L3.92767 12.5014L4.09089 12.9093L4.09729 12.9288C4.22207 13.4283 4.41092 13.8896 4.69099 14.3804L4.93719 14.7908L3.79679 17.0045L4.99211 18.1998L7.13808 16.9929L7.55177 17.2409C8.04235 17.5213 8.50364 17.7098 9.00337 17.8346L9.42927 18.0033L10.1633 20.3384H11.8376L12.5716 18.0033L12.9777 17.8407L12.9924 17.8355C13.4524 17.704 13.9198 17.5039 14.3808 17.2403L14.7933 16.9929L17.007 18.2004L18.2014 17.006L16.9939 14.7923L17.2413 14.3798C17.5037 13.9207 17.7032 13.4554 17.8347 12.9972L17.9192 12.5749L20.3391 11.8354V10.1629L17.9192 9.42341L17.9189 9.42402Z" fill="#113455"/>
</g>
<defs>
<clipPath id="clip0_1342_26487">
<rect width="22" height="22" fill="white" transform="matrix(1 0 0 -1 0 22)"/>
</clipPath>
</defs>
</svg>
