<svg width="28" height="31" viewBox="0 0 28 31" fill="none" xmlns="http://www.w3.org/2000/svg">
<g id="Group 2">
<g id="Group">
<path id="Vector" d="M26.74 3.63363C25.4649 2.06245 23.4919 1.71908 19.9096 1.09551L16.5655 0.513626C14.9432 0.231278 13.7706 0.0271459 12.788 0.00265004C12.0242 -0.0166888 10.9042 0.0507824 9.99357 0.856138C9.24962 1.51409 8.90758 2.37789 8.75035 3.58163H8.25668C4.69546 3.58163 2.7337 3.58163 1.36685 4.94523C-8.2164e-07 6.30884 0 8.26593 0 11.8187L0 18.9814C0 22.5341 -8.2164e-07 24.4908 1.36685 25.8548C2.7337 27.2184 4.69546 27.2184 8.25668 27.2184H8.75035C8.90801 28.4222 9.25005 29.286 9.99357 29.9439C10.8271 30.6814 11.8369 30.8 12.5873 30.8C12.6562 30.8 12.7234 30.7991 12.7876 30.7974C13.7702 30.7725 14.9423 30.5688 16.5651 30.2864L19.9096 29.7046C23.4915 29.0814 25.4645 28.738 26.7395 27.1664C28 25.6129 28 23.5389 28 19.7738L28 11.0271C28 7.26203 28 5.18804 26.7391 3.63449L26.74 3.63363ZM8.25668 25.0693C4.96254 25.0693 3.59784 25.0409 2.89007 24.3352C2.18231 23.6292 2.15388 22.2673 2.15388 18.9814L2.15388 11.8187C2.15388 8.53238 2.18231 7.17092 2.89007 6.46484C3.59784 5.75875 4.96297 5.73039 8.25668 5.73039H8.62413C8.61595 6.26758 8.61552 6.85119 8.61552 7.48722L8.61552 23.3124C8.61552 23.9485 8.61552 24.5321 8.62413 25.0693H8.25668ZM25.8466 19.773C25.8466 23.1543 25.8466 24.8514 25.0656 25.8136C24.3281 26.7221 22.925 26.9975 19.5391 27.5867L16.1946 28.1686C13.3204 28.6689 12.0242 28.8674 11.4225 28.3354C10.7694 27.7578 10.7694 26.1789 10.7694 23.3124L10.7694 7.48722C10.7694 4.62077 10.7694 3.04186 11.4225 2.46427C11.6719 2.24338 12.041 2.1484 12.592 2.1484C13.3704 2.1484 14.5124 2.33792 16.1954 2.63059L19.5396 3.21247C22.925 3.80166 24.3285 4.0767 25.0656 4.98563C25.8466 5.94828 25.8466 7.64537 25.8466 11.0267L25.8466 19.7734V19.773Z" fill="#113455"/>
<path id="Vector_2" d="M13.9988 12.8926C13.4039 12.8926 12.9219 13.3735 12.9219 13.967V16.8321C12.9219 17.4256 13.4039 17.9065 13.9988 17.9065C14.5937 17.9065 15.0758 17.4256 15.0758 16.8321V13.967C15.0758 13.3735 14.5937 12.8926 13.9988 12.8926Z" fill="#113455"/>
</g>
</g>
</svg>
