<svg width="32" height="32" viewBox="0 0 32 32" fill="none" xmlns="http://www.w3.org/2000/svg">
<path fill-rule="evenodd" clip-rule="evenodd" d="M16 13C14.3432 13 13 14.3431 13 16C13 17.6569 14.3432 19 16 19C17.6569 19 19 17.6569 19 16C19 14.3431 17.6569 13 16 13ZM10 16C10 12.6862 12.6864 10 16 10C19.3138 10 22 12.6862 22 16C22 19.3138 19.3138 22 16 22C12.6864 22 10 19.3138 10 16Z" fill="#113455"/>
<path fill-rule="evenodd" clip-rule="evenodd" d="M0.0697409 15.5505C2.19669 8.85764 8.52236 4 16 4C23.4776 4 29.8033 8.85769 31.9303 15.5505C32.0232 15.8431 32.0232 16.1569 31.9303 16.4495C29.8033 23.1423 23.4776 28 16 28C8.52236 28 2.19666 23.1423 0.0697395 16.4495C-0.0232469 16.1569 -0.0232466 15.8431 0.0697409 15.5505ZM3.11741 16C4.99287 21.2448 10.0546 25 16 25C21.9453 25 27.0071 21.2448 28.8826 16C27.0071 10.7552 21.9453 7 16 7C10.0546 7 4.9929 10.7551 3.11741 16Z" fill="#113455"/>
</svg>
