<svg width="20" height="20" viewBox="0 0 20 20" fill="none" xmlns="http://www.w3.org/2000/svg">
<path fill-rule="evenodd" clip-rule="evenodd" d="M4.54545 3.63654C3.03922 3.63654 1.81818 4.85758 1.81818 6.36381V15.4547C1.81818 16.961 3.03922 18.182 4.54545 18.182H15.4545C16.9608 18.182 18.1818 16.961 18.1818 15.4547V6.36381C18.1818 4.85758 16.9608 3.63654 15.4545 3.63654H4.54545ZM0 6.36381C0 3.85343 2.03507 1.81836 4.54545 1.81836H15.4545C17.9649 1.81836 20 3.85343 20 6.36381V15.4547C20 17.9651 17.9649 20.0002 15.4545 20.0002H4.54545C2.03507 20.0002 0 17.9651 0 15.4547V6.36381Z" fill="#113455"/>
<path fill-rule="evenodd" clip-rule="evenodd" d="M6.36364 0C6.86571 0 7.27273 0.407014 7.27273 0.909091V4.54545C7.27273 5.04753 6.86571 5.45454 6.36364 5.45454C5.86156 5.45454 5.45455 5.04753 5.45455 4.54545V0.909091C5.45455 0.407014 5.86156 0 6.36364 0ZM13.6364 0C14.1384 0 14.5455 0.407014 14.5455 0.909091V4.54545C14.5455 5.04753 14.1384 5.45454 13.6364 5.45454C13.1343 5.45454 12.7273 5.04753 12.7273 4.54545V0.909091C12.7273 0.407014 13.1343 0 13.6364 0ZM0 8.18182C0 7.67974 0.407014 7.27273 0.909091 7.27273H19.0909C19.593 7.27273 20 7.67974 20 8.18182C20 8.68389 19.593 9.09091 19.0909 9.09091H0.909091C0.407014 9.09091 0 8.68389 0 8.18182Z" fill="#113455"/>
</svg>
