<svg width="20" height="21" viewBox="0 0 20 21" fill="none" xmlns="http://www.w3.org/2000/svg">
<g id="Icons">
<path id="Vector (Stroke)" fill-rule="evenodd" clip-rule="evenodd" d="M0.791946 0.760302C1.16239 0.381982 1.76299 0.381983 2.13343 0.760303L19.2077 18.1978C19.5781 18.5761 19.5781 19.1895 19.2077 19.5678C18.8372 19.9461 18.2366 19.9461 17.8662 19.5678L14.9825 16.6228C13.5013 17.4463 11.803 17.9141 9.99998 17.9141C5.32649 17.9141 1.3729 14.7768 0.0435867 10.4543C-0.014529 10.2654 -0.0145289 10.0628 0.043587 9.87378C0.662694 7.86067 1.8498 6.10665 3.4121 4.80622L0.791945 2.13032C0.421505 1.752 0.421506 1.13862 0.791946 0.760302ZM4.76207 6.18491C3.48451 7.20018 2.49748 8.57749 1.94839 10.1641C3.12055 13.5514 6.28414 15.9766 9.99998 15.9766C11.2756 15.9766 12.4844 15.6914 13.57 15.1802L11.9271 13.5024C11.3623 13.8431 10.703 14.0391 9.99979 14.0391C7.90434 14.0391 6.20553 12.3042 6.20553 10.1641C6.20553 9.44588 6.39743 8.77259 6.73101 8.19575L4.76207 6.18491ZM8.16678 9.66206C8.12493 9.82207 8.10267 9.9903 8.10267 10.1641C8.10267 11.2341 8.95207 12.1016 9.99979 12.1016C10.1699 12.1016 10.3347 12.0788 10.4914 12.0361L8.16678 9.66206ZM9.99998 4.35156C9.7112 4.35156 9.42594 4.36618 9.14493 4.39467C8.62361 4.44752 8.15905 4.05877 8.1073 3.52636C8.05554 2.99395 8.4362 2.5195 8.95752 2.46665C9.30067 2.43186 9.64848 2.41406 9.99998 2.41406C14.6736 2.41406 18.6271 5.55131 19.9564 9.87379C20.0145 10.0627 20.0145 10.2653 19.9564 10.4543C19.6633 11.4078 19.2425 12.3031 18.7152 13.1194C18.4267 13.566 17.8383 13.6892 17.401 13.3946C16.9637 13.0999 16.8431 12.499 17.1316 12.0525C17.5092 11.4679 17.8196 10.8347 18.0516 10.1641C16.8795 6.7768 13.7159 4.35156 9.99998 4.35156Z" fill="#113455"/>
</g>
</svg>
