<svg width="45" height="33" viewBox="0 0 45 33" fill="none" xmlns="http://www.w3.org/2000/svg">
<g id="Layer_1" clip-path="url(#clip0_1933_20354)">
<path id="Vector" d="M34.7725 32.2642C32.1056 32.2642 29.8308 30.5787 28.9865 28.2309H16.0129C15.1685 30.5781 12.8938 32.2642 10.2269 32.2642C7.56003 32.2642 5.28159 30.5757 4.43907 28.2255C3.56954 28.2067 2.90006 28.1269 2.23365 27.7917C1.45862 27.4021 0.840686 26.7929 0.446116 26.0289C0 25.1662 0 24.2999 0 22.9884V20.5685C0 18.0719 0 16.6962 0.668867 15.4022C1.26103 14.2564 2.18824 13.3423 3.35047 12.7585C3.67508 12.5952 4.00522 12.4724 4.35561 12.3804L4.7962 9.77307C5.31227 6.71925 5.597 5.03747 6.56655 3.59949C7.42258 2.33029 8.6204 1.3303 10.0305 0.706589C11.6285 0 13.3583 0 16.4983 0H23.3809C25.4347 0 26.5663 0 27.7285 0.34785C28.7631 0.657588 29.7106 1.15789 30.5463 1.83423C31.4852 2.59466 32.1124 3.52266 33.2519 5.20747L38.3383 12.7295C41.7563 13.9769 44.2857 16.9485 44.8736 20.6042C44.9994 21.3882 44.9994 22.1922 44.9994 23.7948C44.9994 24.2442 44.9994 24.5153 44.9491 24.8286C44.6711 26.56 43.3045 27.9073 41.5483 28.1813C41.2439 28.2291 40.9794 28.2309 40.5579 28.2309C39.7135 30.5781 37.4387 32.2642 34.7719 32.2642H34.7725ZM32.7272 26.2146C32.7272 27.3265 33.6446 28.2309 34.7725 28.2309C35.9003 28.2309 36.8177 27.3265 36.8177 26.2146C36.8177 25.1027 35.9003 24.1983 34.7725 24.1983C33.6446 24.1983 32.7272 25.1027 32.7272 26.2146ZM8.18165 26.2146C8.18165 27.3265 9.09904 28.2309 10.2269 28.2309C11.3548 28.2309 12.2722 27.3265 12.2722 26.2146C12.2722 25.1027 11.3548 24.1983 10.2269 24.1983C9.09904 24.1983 8.18165 25.1027 8.18165 26.2146ZM16.0129 24.1977H28.9865C29.8308 21.8504 32.1056 20.1644 34.7725 20.1644C37.4394 20.1644 39.7141 21.8498 40.5585 24.1977C40.6984 24.1977 40.8334 24.1977 40.9064 24.1952C40.9089 24.1136 40.9089 23.952 40.9089 23.7948C40.9089 22.4475 40.9089 21.7052 40.8334 21.2352C40.4161 18.6387 38.3666 16.6176 35.7322 16.2068C35.2554 16.1324 34.5025 16.1324 33.1359 16.1324H8.59033C6.8163 16.1324 5.64487 16.1324 5.20734 16.352C4.81952 16.5468 4.51086 16.8511 4.31327 17.2334C4.09052 17.6647 4.09052 18.8202 4.09052 20.5685V22.9884C4.09052 23.4536 4.09052 23.9315 4.11322 24.1759C4.19852 24.1837 4.31204 24.1886 4.44336 24.1916C5.28957 21.8474 7.56249 20.165 10.2269 20.165C12.8913 20.165 15.1685 21.8504 16.0129 24.1983V24.1977ZM16.3633 4.03325C13.8732 4.03325 12.49 4.0393 11.7052 4.38654C11.0001 4.6987 10.4012 5.19839 9.97286 5.83299C9.48809 6.55168 9.25491 7.93159 8.83149 10.4361L8.55045 12.0991H16.3633V4.03325ZM20.4544 12.0991H32.996L29.8486 7.4452C28.8963 6.03747 28.4189 5.33088 27.9494 4.95036C27.5315 4.61158 27.0578 4.36174 26.5405 4.20687C25.9594 4.03264 25.0978 4.03264 23.3815 4.03264H20.4544V12.0991Z" fill="#00325B"/>
</g>
<defs>
<clipPath id="clip0_1933_20354">
<rect width="45" height="32.2642" fill="white"/>
</clipPath>
</defs>
</svg>
