<svg width="31" height="41" viewBox="0 0 31 41" fill="none" xmlns="http://www.w3.org/2000/svg">
<g id="Layer_1" clip-path="url(#clip0_1933_7662)">
<path id="Vector" d="M15.498 19.4723C20.8298 19.4723 25.1672 15.1049 25.1672 9.73617C25.1672 4.36743 20.8298 0 15.498 0C10.1662 0 5.82812 4.36743 5.82812 9.73617C5.82812 15.1049 10.1655 19.4723 15.4973 19.4723H15.498ZM9.61885 9.73617C9.61885 6.47179 12.2561 3.81627 15.498 3.81627C18.74 3.81627 21.3772 6.47179 21.3772 9.73617C21.3772 13.0006 18.74 15.6561 15.498 15.6561C12.2561 15.6561 9.61885 13.0006 9.61885 9.73617Z" fill="#00325B"/>
<path id="Vector_2" d="M29.5585 27.081C28.7109 25.9325 27.5338 24.9197 26.0601 24.072C23.2086 22.4315 19.458 21.5276 15.4996 21.5276C11.5413 21.5276 7.79066 22.4315 4.93919 24.072C3.46546 24.9197 2.28834 25.9325 1.44078 27.081C0.485036 28.3774 0 29.7849 0 31.2638C0 32.7427 0.485036 34.1501 1.44149 35.4465C2.28905 36.595 3.46618 37.6079 4.93991 38.4555C7.79137 40.096 11.542 40.9999 15.5004 40.9999C19.4587 40.9999 23.2093 40.0967 26.0608 38.4555C27.5345 37.6079 28.7117 36.595 29.5592 35.4465C30.5157 34.1501 31.0007 32.7427 31.0007 31.2638C31.0007 29.7849 30.5157 28.3774 29.5592 27.081H29.5585ZM27.21 31.2638C27.21 32.6207 26.1052 34.0347 24.1801 35.1421C21.8925 36.4586 18.8096 37.1837 15.5004 37.1837C12.1911 37.1837 9.10821 36.4586 6.82059 35.1421C4.89477 34.034 3.79073 32.6207 3.79073 31.2638C3.79073 29.9068 4.89549 28.4935 6.82059 27.3855C9.10821 26.0689 12.1911 25.3439 15.5004 25.3439C18.8096 25.3439 21.8925 26.0689 24.1801 27.3855C26.1059 28.4935 27.21 29.9068 27.21 31.2638Z" fill="black"/>
</g>
<defs>
<clipPath id="clip0_1933_7662">
<rect width="31" height="41" fill="white"/>
</clipPath>
</defs>
</svg>
