<svg width="32" height="32" viewBox="0 0 32 32" fill="none" xmlns="http://www.w3.org/2000/svg">
<g id="Icon-Bell">
<path id="Vector (Stroke)" fill-rule="evenodd" clip-rule="evenodd" d="M5.23086 12.0931C5.23086 6.00454 10.015 1 16 1C21.985 1 26.7691 6.00454 26.7691 12.0931V13.101C26.7691 14.1075 27.0575 15.0883 27.5936 15.9198C27.5936 15.9198 27.5936 15.9198 27.5936 15.9198L29.1839 18.386C31.0067 21.2126 29.647 25.1064 26.3882 26.0252L26.0949 24.9929L26.3882 26.0252C26.3882 26.0252 26.3882 26.0252 26.3882 26.0252C19.5873 27.9428 12.4128 27.9428 5.61173 26.0252C2.35311 25.1064 0.993319 21.2127 2.81607 18.386L4.4064 15.9198L5.31261 16.4996L4.40641 15.9197C4.94254 15.0883 5.23086 14.1075 5.23086 13.101V12.0931ZM16 3.14568C11.2795 3.14568 7.38494 7.11362 7.38494 12.0931V13.101C7.38494 14.5138 6.98065 15.8979 6.21883 17.0793L6.21881 17.0794L4.62847 19.5456C3.54598 21.2243 4.40411 23.4547 6.19842 23.9606C12.6159 25.7701 19.3842 25.7701 25.8015 23.9606L25.8015 23.9606C27.596 23.4547 28.454 21.2243 27.3715 19.5456L27.3715 19.5456L25.7812 17.0794L25.7812 17.0793C25.0194 15.8979 24.615 14.5139 24.615 13.101V12.0931C24.615 7.11362 20.7205 3.14568 16 3.14568Z" fill="#1C274C"/>
<path id="Vector (Stroke)_2" fill-rule="evenodd" clip-rule="evenodd" d="M9.18119 25.4813C9.73617 25.2773 10.3547 25.5532 10.5627 26.0977C11.3368 28.1242 13.4538 29.6255 15.9966 29.6255C18.5393 29.6255 20.6563 28.1242 21.4305 26.0977C21.6385 25.5532 22.257 25.2773 22.8119 25.4813C23.3669 25.6853 23.6482 26.2921 23.4402 26.8366C22.34 29.7169 19.399 31.7311 15.9966 31.7311C12.5941 31.7311 9.65323 29.7169 8.55292 26.8366C8.34493 26.2921 8.62622 25.6854 9.18119 25.4813Z" fill="#1C274C"/>
</g>
</svg>
