<svg width="50" height="50" viewBox="0 0 50 50" fill="none" xmlns="http://www.w3.org/2000/svg">
<path fill-rule="evenodd" clip-rule="evenodd" d="M23.9269 11.3577C24.038 11.1722 24.1952 11.0187 24.3833 10.9121C24.5713 10.8054 24.7838 10.7494 25 10.7494C25.2162 10.7494 25.4287 10.8054 25.6167 10.9121C25.8048 11.0187 25.962 11.1722 26.0731 11.3577L41.0587 36.3638C41.1725 36.5536 41.2338 36.7702 41.2365 36.9914C41.2392 37.2127 41.1831 37.4307 41.074 37.6232C40.9649 37.8158 40.8067 37.9759 40.6155 38.0873C40.4243 38.1987 40.2069 38.2573 39.9856 38.2573L10.0094 38.2573C9.78786 38.2578 9.57021 38.1994 9.37865 38.0882C9.18709 37.977 9.02851 37.8169 8.91911 37.6243C8.80971 37.4317 8.75342 37.2135 8.756 36.9921C8.75857 36.7706 8.81992 36.5538 8.93377 36.3638L23.9269 11.3577ZM29.2898 9.43163C27.3513 6.18987 22.6512 6.18987 20.7102 9.42913L5.71953 34.4327C3.72094 37.767 6.12225 42.0068 10.0119 42.0068L39.9881 42.0068C43.8777 42.0093 46.2791 37.7695 44.2805 34.4352L29.2898 9.43163ZM22.4986 33.2546C22.4986 33.918 22.7622 34.5542 23.2313 35.0233C23.7004 35.4924 24.3366 35.7559 25 35.7559C25.6634 35.7559 26.2996 35.4924 26.7687 35.0233C27.2378 34.5542 27.5014 33.918 27.5014 33.2546C27.5014 32.5912 27.2378 31.9549 26.7687 31.4858C26.2996 31.0167 25.6634 30.7532 25 30.7532C24.3366 30.7532 23.7004 31.0167 23.2313 31.4858C22.7622 31.9549 22.4986 32.5912 22.4986 33.2546ZM23.124 18.8718C23.124 18.3742 23.3216 17.897 23.6735 17.5452C24.0253 17.1934 24.5024 16.9957 25 16.9957C25.4976 16.9957 25.9747 17.1934 26.3265 17.5452C26.6784 17.897 26.876 18.3742 26.876 18.8718L26.876 26.3758C26.876 26.8734 26.6784 27.3506 26.3265 27.7024C25.9747 28.0542 25.4976 28.2519 25 28.2519C24.5024 28.2519 24.0253 28.0542 23.6735 27.7024C23.3216 27.3506 23.124 26.8734 23.124 26.3758L23.124 18.8718Z" fill="#FFC84F"/>
</svg>
