<svg width="32" height="32" viewBox="0 0 32 32" fill="none" xmlns="http://www.w3.org/2000/svg">
<g clip-path="url(#clip0_13_320)">
<path d="M9.9532 28.7999H6.77182C5.89476 28.7999 5.18137 28.0823 5.18137 27.2V8.00012C5.18137 7.11788 5.89476 6.40029 6.77182 6.40029H8.36227V8.00012C8.36227 8.8838 9.07423 9.59995 9.95272 9.59995H19.4964C20.3749 9.59995 21.0868 8.8838 21.0868 8.00012V6.40029H22.6773C23.5543 6.40029 24.2677 7.11788 24.2677 8.00012V11.2003C24.2677 12.0839 24.9797 12.8001 25.8582 12.8001C26.7367 12.8001 27.4486 12.0839 27.4486 11.2003V8.00012C27.4486 5.35341 25.308 3.20014 22.6768 3.20014H20.8134C20.1577 1.33775 18.3893 0 16.3155 0H13.1341C11.0603 0 9.29182 1.33775 8.63522 3.20014H6.77182C4.14064 3.20014 2 5.35341 2 8.00012V27.2C2 29.8467 4.14064 32 6.77182 32H9.9532C10.8317 32 11.5436 31.2838 11.5436 30.4002C11.5436 29.5165 10.8317 28.8003 9.9532 28.8003V28.7999ZM11.5436 4.79998C11.5436 3.91774 12.257 3.20014 13.1341 3.20014H16.3155C17.1925 3.20014 17.9059 3.91774 17.9059 4.79998V6.39981H11.5436V4.79998Z" fill="#113455"/>
<path d="M30.9397 18.0474L27.7793 14.8684C27.4811 14.5684 27.0764 14.3999 26.6546 14.3999C26.2328 14.3999 25.8281 14.5684 25.5299 14.8684L15.8689 24.5869C15.4237 25.0347 15.1226 25.6002 14.999 26.2222L14.3032 29.7209C14.1987 30.2456 14.3619 30.788 14.7384 31.1662C15.0395 31.4691 15.4456 31.6347 15.8631 31.6347C15.9667 31.6347 16.0712 31.6246 16.1752 31.6035L19.6534 30.9037C20.2714 30.7793 20.8335 30.4769 21.2792 30.0286L30.9402 20.3106C31.5615 19.6856 31.5615 18.6728 30.9402 18.0479L30.9397 18.0474ZM19.0292 27.7654L17.8907 27.9944L18.1183 26.8491L26.6546 18.262L27.5656 19.1783L19.0292 27.765V27.7654Z" fill="#113455"/>
</g>
<defs>
<clipPath id="clip0_13_320">
<rect width="29.4054" height="32" fill="white" transform="translate(2)"/>
</clipPath>
</defs>
</svg>
