<svg width="40" height="40" viewBox="0 0 40 40" fill="none" xmlns="http://www.w3.org/2000/svg">
<path fill-rule="evenodd" clip-rule="evenodd" d="M22.916 3.76619C22.6812 3.67228 22.4294 3.62837 22.1767 3.63729C22.1553 3.63804 22.134 3.63842 22.1126 3.63842H9.20424C8.72205 3.63842 8.25962 3.82996 7.91866 4.17092C7.57771 4.51188 7.38616 4.97431 7.38616 5.4565V34.5458C7.38616 35.0279 7.5777 35.4904 7.91866 35.8313C8.25962 36.1723 8.72205 36.3638 9.20424 36.3638H31.0212C31.5034 36.3638 31.9658 36.1723 32.3068 35.8313C32.6477 35.4904 32.8393 35.0279 32.8393 34.5458V14.9105C32.8393 14.8876 32.8397 14.8647 32.8406 14.8419C32.8579 14.383 32.701 13.9349 32.4018 13.5873L23.5303 4.1726C23.3554 3.99668 23.1464 3.85835 22.916 3.76619ZM22.0838 0.00225984C22.8301 -0.0192295 23.573 0.112729 24.2664 0.390105C24.9708 0.67185 25.6086 1.09743 26.1392 1.63966C26.1472 1.64781 26.1551 1.65604 26.1629 1.66435L35.0715 11.1184C35.0847 11.1324 35.0978 11.1467 35.1106 11.1612C36.0304 12.2019 36.5182 13.554 36.4754 14.9414V34.5458C36.4754 35.9923 35.9008 37.3796 34.8779 38.4025C33.855 39.4254 32.4677 40 31.0212 40H9.20424C7.75768 40 6.37038 39.4254 5.34751 38.4025C4.32464 37.3796 3.75 35.9923 3.75 34.5458V5.4565C3.75 4.00994 4.32464 2.62264 5.34751 1.59977C6.37038 0.576901 7.75768 0.00225984 9.20424 0.00225984H22.0838Z" fill="#113455"/>
<path fill-rule="evenodd" clip-rule="evenodd" d="M10.8438 30.0007C10.8438 28.9966 11.6577 28.1826 12.6618 28.1826H27.5701C28.5742 28.1826 29.3882 28.9966 29.3882 30.0007C29.3882 31.0048 28.5742 31.8188 27.5701 31.8188H12.6618C11.6577 31.8188 10.8438 31.0048 10.8438 30.0007Z" fill="#113455"/>
<path fill-rule="evenodd" clip-rule="evenodd" d="M10.8438 22.7282C10.8438 21.7241 11.6577 20.9102 12.6618 20.9102H27.5701C28.5742 20.9102 29.3882 21.7241 29.3882 22.7282C29.3882 23.7323 28.5742 24.5463 27.5701 24.5463H12.6618C11.6577 24.5463 10.8438 23.7323 10.8438 22.7282Z" fill="#113455"/>
<path fill-rule="evenodd" clip-rule="evenodd" d="M11.0234 15.4558C11.0234 14.4517 11.8374 13.6377 12.8415 13.6377H21.9319C22.936 13.6377 23.75 14.4517 23.75 15.4558C23.75 16.4599 22.936 17.2739 21.9319 17.2739H12.8415C11.8374 17.2739 11.0234 16.4599 11.0234 15.4558Z" fill="#113455"/>
</svg>
