<svg width="32" height="32" viewBox="0 0 32 32" fill="none" xmlns="http://www.w3.org/2000/svg">
<path d="M16 10C15.2044 10 14.4413 9.68393 13.8787 9.12132C13.3161 8.55871 13 7.79565 13 7C13 6.20435 13.3161 5.44129 13.8787 4.87868C14.4413 4.31607 15.2044 4 16 4C16.7956 4 17.5587 4.31607 18.1213 4.87868C18.6839 5.44129 19 6.20435 19 7C19 7.79565 18.6839 8.55871 18.1213 9.12132C17.5587 9.68393 16.7956 10 16 10ZM16 19C15.2044 19 14.4413 18.6839 13.8787 18.1213C13.3161 17.5587 13 16.7956 13 16C13 15.2044 13.3161 14.4413 13.8787 13.8787C14.4413 13.3161 15.2044 13 16 13C16.7956 13 17.5587 13.3161 18.1213 13.8787C18.6839 14.4413 19 15.2044 19 16C19 16.7956 18.6839 17.5587 18.1213 18.1213C17.5587 18.6839 16.7956 19 16 19ZM16 28C15.2044 28 14.4413 27.6839 13.8787 27.1213C13.3161 26.5587 13 25.7957 13 25C13 24.2044 13.3161 23.4413 13.8787 22.8787C14.4413 22.3161 15.2044 22 16 22C16.7956 22 17.5587 22.3161 18.1213 22.8787C18.6839 23.4413 19 24.2044 19 25C19 25.7957 18.6839 26.5587 18.1213 27.1213C17.5587 27.6839 16.7956 28 16 28Z" fill="#113455"/>
</svg>
