<svg width="20" height="18" viewBox="0 0 20 18" fill="none" xmlns="http://www.w3.org/2000/svg">
<path fill-rule="evenodd" clip-rule="evenodd" d="M2.45148 2.56358C1.81896 3.15091 1.39535 4.10391 1.39535 5.59884V12.1105C1.39535 13.6053 1.81896 14.5584 2.45148 15.1457C3.09335 15.7417 4.06044 16.064 5.34884 16.064H14.6512C15.9395 16.064 16.9066 15.7417 17.5486 15.1457C18.181 14.5584 18.6047 13.6053 18.6047 12.1105V5.59884C18.6047 4.10391 18.181 3.15091 17.5486 2.56358C16.9066 1.96755 15.9395 1.64535 14.6512 1.64535H5.34884C4.06044 1.64535 3.09335 1.96755 2.45148 2.56358ZM1.50201 1.54107C2.48805 0.62547 3.84654 0.25 5.34884 0.25H14.6512C16.1535 0.25 17.512 0.62547 18.498 1.54107C19.4934 2.46537 20 3.83795 20 5.59884V12.1105C20 13.8714 19.4934 15.244 18.498 16.1682C17.512 17.0839 16.1535 17.4593 14.6512 17.4593H5.34884C3.84654 17.4593 2.48805 17.0839 1.50201 16.1682C0.506623 15.244 0 13.8714 0 12.1105V5.59884C0 3.83795 0.506623 2.46537 1.50201 1.54107Z" fill="#00325B"/>
<path fill-rule="evenodd" clip-rule="evenodd" d="M16.8528 4.49183C17.0884 4.79672 17.0322 5.23488 16.7274 5.47047L11.5673 9.45773C10.646 10.1695 9.3603 10.1695 8.43899 9.45773L3.27894 5.47047C2.97404 5.23488 2.91786 4.79672 3.15346 4.49183C3.38906 4.18693 3.82721 4.13075 4.13211 4.36635L9.29211 8.35354C9.7109 8.67717 10.2954 8.67717 10.7141 8.35354L15.8742 4.36635C16.1791 4.13075 16.6172 4.18693 16.8528 4.49183Z" fill="#00325B"/>
</svg>
