<svg width="41" height="40" viewBox="0 0 41 40" fill="none" xmlns="http://www.w3.org/2000/svg">
<g id="Icon-Close">
<path id="Vector (Stroke)" fill-rule="evenodd" clip-rule="evenodd" d="M20.5 36C22.6011 36 24.6817 35.5861 26.6229 34.7821C28.5641 33.978 30.328 32.7994 31.8137 31.3137C33.2994 29.828 34.478 28.0641 35.2821 26.1229C36.0861 24.1817 36.5 22.1011 36.5 20C36.5 17.8988 36.0861 15.8183 35.2821 13.8771C34.478 11.9359 33.2994 10.172 31.8137 8.68629C30.328 7.20055 28.5641 6.022 26.6229 5.21793C24.6817 4.41385 22.6012 4 20.5 4C16.2565 4 12.1869 5.68571 9.1863 8.68629C6.18571 11.6869 4.50001 15.7565 4.50001 20C4.50001 24.2435 6.18571 28.3131 9.1863 31.3137C12.1869 34.3143 16.2565 36 20.5 36ZM28.1537 38.4776C25.7272 39.4827 23.1264 40 20.5 40C15.1957 40 10.1086 37.8929 6.35787 34.1421C2.60714 30.3914 0.500001 25.3043 0.500002 20C0.500002 14.6957 2.60714 9.60859 6.35787 5.85787C10.1086 2.10714 15.1957 -2.21217e-06 20.5 -1.74846e-06C23.1264 -1.51885e-06 25.7272 0.517314 28.1537 1.52241C30.5802 2.5275 32.785 4.0007 34.6421 5.85787C36.4993 7.71504 37.9725 9.91982 38.9776 12.3463C39.9827 14.7728 40.5 17.3736 40.5 20C40.5 22.6264 39.9827 25.2272 38.9776 27.6537C37.9725 30.0802 36.4993 32.285 34.6421 34.1421C32.785 35.9993 30.5802 37.4725 28.1537 38.4776ZM27.9142 27.4142C27.1332 28.1953 25.8668 28.1953 25.0858 27.4142L20.5 22.8284L15.9142 27.4142C15.1332 28.1953 13.8668 28.1953 13.0858 27.4142C12.3047 26.6332 12.3047 25.3668 13.0858 24.5858L17.6716 20L13.0858 15.4142C12.3047 14.6332 12.3047 13.3668 13.0858 12.5858C13.8668 11.8047 15.1332 11.8047 15.9142 12.5858L20.5 17.1716L25.0858 12.5858C25.8668 11.8047 27.1332 11.8047 27.9142 12.5858C28.6953 13.3668 28.6953 14.6332 27.9142 15.4142L23.3284 20L27.9142 24.5858C28.6953 25.3668 28.6953 26.6332 27.9142 27.4142Z" fill="#113455"/>
</g>
</svg>
