<svg width="20" height="20" viewBox="0 0 20 20" fill="none" xmlns="http://www.w3.org/2000/svg">
<g id="Group">
<path id="Vector (Stroke)" fill-rule="evenodd" clip-rule="evenodd" d="M13.4162 13.4101C13.867 12.9597 14.5978 12.9597 15.0485 13.4101L19.6655 18.0239C20.1163 18.4743 20.1163 19.2047 19.6655 19.6551C19.2148 20.1056 18.4839 20.1056 18.0332 19.6551L13.4162 15.0413C12.9654 14.5909 12.9654 13.8606 13.4162 13.4101Z" fill="#113455"/>
<path id="Vector (Stroke)_2" fill-rule="evenodd" clip-rule="evenodd" d="M8.46448 2.30689C5.06462 2.30689 2.30849 5.06111 2.30849 8.4586C2.30849 11.8561 5.06462 14.6103 8.46448 14.6103C11.8643 14.6103 14.6205 11.8561 14.6205 8.4586C14.6205 5.06111 11.8643 2.30689 8.46448 2.30689ZM0 8.4586C0 3.78705 3.78968 0 8.46448 0C13.1393 0 16.929 3.78705 16.929 8.4586C16.929 13.1302 13.1393 16.9172 8.46448 16.9172C3.78968 16.9172 0 13.1302 0 8.4586Z" fill="#113455"/>
</g>
</svg>
