<svg width="41" height="40" viewBox="0 0 41 40" fill="none" xmlns="http://www.w3.org/2000/svg">
<g id="Icon-Check">
<path id="Vector (Stroke)" fill-rule="evenodd" clip-rule="evenodd" d="M20.5 36C18.3989 36 16.3183 35.5861 14.3771 34.7821C12.4359 33.978 10.672 32.7994 9.18629 31.3137C7.70055 29.828 6.522 28.0641 5.71793 26.1229C4.91385 24.1817 4.5 22.1011 4.5 20C4.5 17.8988 4.91385 15.8183 5.71793 13.8771C6.522 11.9359 7.70055 10.172 9.18629 8.68629C10.672 7.20055 12.4359 6.022 14.3771 5.21793C16.3183 4.41385 18.3988 4 20.5 4C24.7435 4 28.8131 5.68571 31.8137 8.68629C34.8143 11.6869 36.5 15.7565 36.5 20C36.5 24.2435 34.8143 28.3131 31.8137 31.3137C28.8131 34.3143 24.7435 36 20.5 36ZM12.8463 38.4776C15.2728 39.4827 17.8736 40 20.5 40C25.8043 40 30.8914 37.8929 34.6421 34.1421C38.3929 30.3914 40.5 25.3043 40.5 20C40.5 14.6957 38.3929 9.60859 34.6421 5.85786C30.8914 2.10714 25.8043 0 20.5 0C17.8736 0 15.2728 0.517311 12.8463 1.52241C10.4198 2.5275 8.21504 4.0007 6.35786 5.85786C4.50069 7.71504 3.0275 9.91982 2.02241 12.3463C1.01732 14.7728 0.5 17.3736 0.5 20C0.5 22.6264 1.01732 25.2272 2.02241 27.6537C3.0275 30.0802 4.50069 32.285 6.35786 34.1421C8.21504 35.9993 10.4198 37.4725 12.8463 38.4776Z" fill="#113455"/>
<path id="Vector" d="M17.2929 27.2054L10.7929 20.668C10.4024 20.2753 10.4024 19.6385 10.7929 19.2457L12.2071 17.8233C12.5976 17.4305 13.2308 17.4305 13.6213 17.8233L18 22.2272L27.3787 12.7946C27.7692 12.4018 28.4024 12.4018 28.7929 12.7946L30.2071 14.2169C30.5976 14.6097 30.5976 15.2465 30.2071 15.6393L18.7071 27.2054C18.3166 27.5982 17.6834 27.5982 17.2929 27.2054Z" fill="#113455"/>
</g>
</svg>
