<svg width="40" height="40" viewBox="0 0 40 40" fill="none" xmlns="http://www.w3.org/2000/svg">
<path fill-rule="evenodd" clip-rule="evenodd" d="M18.9269 6.35683C19.038 6.17138 19.1952 6.01787 19.3833 5.91129C19.5713 5.8047 19.7838 5.74868 20 5.74868C20.2162 5.74868 20.4287 5.8047 20.6167 5.91129C20.8048 6.01787 20.962 6.17138 21.0731 6.35683L36.0587 31.358C36.1725 31.5478 36.2338 31.7644 36.2365 31.9856C36.2392 32.2068 36.1831 32.4248 36.074 32.6173C35.9649 32.8098 35.8067 32.9699 35.6155 33.0812C35.4243 33.1926 35.2069 33.2512 34.9856 33.2512L5.00936 33.2512C4.78786 33.2517 4.57021 33.1934 4.37865 33.0822C4.1871 32.971 4.02852 32.8109 3.91911 32.6184C3.80971 32.4258 3.75342 32.2077 3.756 31.9862C3.75858 31.7648 3.81992 31.548 3.93377 31.358L18.9269 6.35683ZM24.2898 4.43116C22.3513 1.19003 17.6512 1.19003 15.7102 4.42866L0.71953 29.4274C-1.27906 32.761 1.12225 37 5.01186 37L34.9881 37C38.8777 37.0025 41.2791 32.7635 39.2805 29.4299L24.2898 4.43116ZM17.4986 28.2495C17.4986 28.9127 17.7622 29.5488 18.2313 30.0178C18.7004 30.4868 19.3366 30.7503 20 30.7503C20.6634 30.7503 21.2996 30.4868 21.7687 30.0178C22.2378 29.5488 22.5014 28.9127 22.5014 28.2495C22.5014 27.5862 22.2378 26.9501 21.7687 26.4811C21.2996 26.0121 20.6634 25.7486 20 25.7486C19.3366 25.7486 18.7004 26.0121 18.2313 26.4811C17.7622 26.9501 17.4986 27.5862 17.4986 28.2495ZM18.124 13.8694C18.124 13.372 18.3216 12.8949 18.6735 12.5432C19.0253 12.1914 19.5025 11.9938 20 11.9938C20.4976 11.9938 20.9747 12.1914 21.3265 12.5432C21.6784 12.8949 21.876 13.372 21.876 13.8694L21.876 21.3721C21.876 21.8695 21.6784 22.3466 21.3265 22.6983C20.9747 23.0501 20.4976 23.2477 20 23.2477C19.5024 23.2477 19.0253 23.0501 18.6735 22.6983C18.3216 22.3466 18.124 21.8695 18.124 21.3721L18.124 13.8694Z" fill="#EF4444"/>
</svg>
