<svg width="20" height="20" viewBox="0 0 20 20" fill="none" xmlns="http://www.w3.org/2000/svg">
<g id="Icons">
<path id="Vector (Stroke)" fill-rule="evenodd" clip-rule="evenodd" d="M10 18C8.94943 18 7.90914 17.7931 6.93853 17.391C5.96793 16.989 5.08601 16.3997 4.34315 15.6569C3.60028 14.914 3.011 14.0321 2.60896 13.0615C2.20693 12.0909 2 11.0506 2 10C2 8.94942 2.20693 7.90914 2.60896 6.93853C3.011 5.96793 3.60028 5.08602 4.34315 4.34315C5.08602 3.60028 5.96793 3.011 6.93853 2.60896C7.90914 2.20693 8.94942 2 10 2C12.1217 2 14.1566 2.84286 15.6569 4.34315C17.1571 5.84344 18 7.87827 18 10C18 12.1217 17.1571 14.1566 15.6569 15.6569C14.1566 17.1571 12.1217 18 10 18ZM6.17317 19.2388C7.38642 19.7413 8.68678 20 10 20C12.6522 20 15.1957 18.9464 17.0711 17.0711C18.9464 15.1957 20 12.6522 20 10C20 7.34783 18.9464 4.8043 17.0711 2.92893C15.1957 1.05357 12.6522 0 10 0C8.68678 0 7.38642 0.258657 6.17317 0.761204C4.95991 1.26375 3.85752 2.00035 2.92893 2.92893C2.00035 3.85752 1.26375 4.95991 0.761205 6.17317C0.258658 7.38642 0 8.68678 0 10C0 11.3132 0.258658 12.6136 0.761205 13.8268C1.26375 15.0401 2.00035 16.1425 2.92893 17.0711C3.85752 17.9997 4.95991 18.7362 6.17317 19.2388ZM6.29289 13.7071C6.68342 14.0976 7.31658 14.0976 7.70711 13.7071L10 11.4142L12.2929 13.7071C12.6834 14.0976 13.3166 14.0976 13.7071 13.7071C14.0976 13.3166 14.0976 12.6834 13.7071 12.2929L11.4142 10L13.7071 7.70711C14.0976 7.31658 14.0976 6.68342 13.7071 6.29289C13.3166 5.90237 12.6834 5.90237 12.2929 6.29289L10 8.58579L7.70711 6.29289C7.31658 5.90237 6.68342 5.90237 6.29289 6.29289C5.90237 6.68342 5.90237 7.31658 6.29289 7.70711L8.58579 10L6.29289 12.2929C5.90237 12.6834 5.90237 13.3166 6.29289 13.7071Z" fill="#113455"/>
</g>
</svg>
