<?xml version="1.0" encoding="utf-8"?>
<!-- Generator: Adobe Illustrator 26.3.1, SVG Export Plug-In . SVG Version: 6.00 Build 0)  -->
<svg version="1.1" xmlns="http://www.w3.org/2000/svg" xmlns:xlink="http://www.w3.org/1999/xlink" x="0px" y="0px"
	 viewBox="0 0 1439.091 743.005" enable-background="new 0 0 1439.091 743.005" xml:space="preserve">
<g id="Ebene_2">
	<rect x="-66.521" y="-65.807" fill="#FFFFFF" width="1600" height="870"/>
</g>
<g id="Layer_1">
	<g>
		<path d="M782.217,623.933v-3c-6.22,0-11.895,2.379-16.163,6.275l-22.958-22.958c1.097-2.206,1.717-4.69,1.717-7.317
			c0-9.098-7.402-16.5-16.5-16.5s-16.5,7.402-16.5,16.5c0,2.453,0.542,4.78,1.506,6.875l-20.314,20.314
			c-2.517-1.187-5.326-1.854-8.288-1.854c-10.752,0-19.5,8.748-19.5,19.5s8.748,19.5,19.5,19.5c0.115,0,0.228-0.007,0.342-0.009
			l24.666,23.976c-13.911,6.851-23.508,21.173-23.508,37.698v1.5h84v-1.5c0-12.946-5.89-24.538-15.128-32.249l-50.917-50.174
			c-0.189-2.954-1.037-5.731-2.401-8.185l20.173-20.173c1.961,0.824,4.113,1.28,6.369,1.28c2.079,0,4.067-0.39,5.901-1.095
			l25.181,25.181c-0.761,2.336-1.178,4.827-1.178,7.414c0,13.234,10.766,24,24,24v-3c-11.58,0-21-9.42-21-21
			S770.637,623.933,782.217,623.933z M668.217,641.768c0-9.098,7.402-16.5,16.5-16.5s16.5,7.402,16.5,16.5s-7.402,16.5-16.5,16.5
			S668.217,650.866,668.217,641.768z M767.188,721.433h-77.943c0.791-20.812,17.97-37.5,38.971-37.5
			S766.397,700.622,767.188,721.433z M728.217,680.933c-5.487,0-10.727,1.069-15.536,2.991l-23.779-23.114
			c7.855-1.725,13.949-8.196,15.111-16.244l40.075,39.49C739.188,682.049,733.832,680.933,728.217,680.933z M700.078,629.777
			c-1.239-1.583-2.714-2.973-4.376-4.11l19.175-19.174c1.17,1.64,2.63,3.059,4.308,4.178L700.078,629.777z M714.813,596.933
			c0-7.444,6.056-13.5,13.5-13.5s13.5,6.056,13.5,13.5s-6.056,13.5-13.5,13.5S714.813,604.377,714.813,596.933z M737.043,610.925
			c1.712-1.072,3.216-2.448,4.431-4.054l22.497,22.497c-1.326,1.552-2.461,3.27-3.361,5.125L737.043,610.925z"/>
		<g>
			<path fill="#4FB81C" d="M796.605,637.154c-2.724-4.707-7.809-7.875-13.638-7.875c-5.829,0-10.914,3.168-13.638,7.875
				c-1.341,2.317-2.112,5.005-2.112,7.875s0.771,5.558,2.112,7.875c2.724,4.706,7.809,7.875,13.638,7.875
				c5.829,0,10.914-3.169,13.638-7.875c1.341-2.317,2.112-5.005,2.112-7.875S797.946,639.471,796.605,637.154z"/>
			<path fill="#EFAB1F" d="M769.329,637.154h27.275c-2.724-4.706-7.809-7.875-13.638-7.875
				C777.138,629.279,772.053,632.448,769.329,637.154z"/>
			<path opacity="0.7" fill="#EFAB1F" d="M769.329,637.154c-1.341,2.317-2.112,5.005-2.112,7.875h31.5
				c0-2.87-0.771-5.558-2.112-7.875H769.329z"/>
			<path opacity="0.4" fill="#EFAB1F" d="M769.329,652.904h27.275c1.341-2.317,2.112-5.005,2.112-7.875h-31.5
				C767.217,647.899,767.988,650.587,769.329,652.904z"/>
		</g>
	</g>
	<g>
		<path fill="#1D1D1B" d="M512.612,672.284c-3.847,0-6.976-3.127-6.976-6.972c0-3.848,3.13-6.979,6.976-6.979
			c3.845,0,6.973,3.131,6.973,6.979C519.586,669.157,516.457,672.284,512.612,672.284z M512.612,661.333
			c-2.193,0-3.976,1.785-3.976,3.979c0,2.19,1.784,3.972,3.976,3.972c2.191,0,3.973-1.782,3.973-3.972
			C516.586,663.118,514.803,661.333,512.612,661.333z M545.682,665.738v4.267c0,5.924-2.413,8.34-8.331,8.34h-49.458
			c-5.934,0-8.354-2.416-8.354-8.34v-6.209h-3v6.209c0,7.63,3.714,11.34,11.354,11.34h49.458c7.625,0,11.331-3.71,11.331-11.34
			v-1.267L545.682,665.738z M574.423,630.535l0.002-0.001l-7.649-13.251c-0.105-0.184-0.221-0.357-0.338-0.531l-0.162-0.246
			c-0.038-0.059-0.076-0.118-0.113-0.171c-0.212-0.311-0.439-0.609-0.671-0.897l-0.048-0.06c-0.045-0.057-0.09-0.114-0.135-0.166
			c-0.24-0.286-0.489-0.557-0.798-0.874c-0.056-0.058-0.113-0.116-0.161-0.163c-0.252-0.248-0.513-0.481-0.781-0.708l-0.061-0.052
			c-0.078-0.066-0.157-0.133-0.24-0.199c-0.246-0.197-0.498-0.385-0.745-0.557c-0.146-0.103-0.291-0.204-0.448-0.305
			c-0.22-0.142-0.442-0.276-0.664-0.403c-0.202-0.117-0.405-0.229-0.615-0.337c-0.182-0.093-0.368-0.181-0.555-0.267
			c-0.256-0.117-0.514-0.23-0.777-0.333c-0.155-0.061-0.311-0.117-0.466-0.171c-0.293-0.104-0.589-0.2-0.896-0.287
			c-0.115-0.032-0.231-0.062-0.346-0.09l-0.081-0.02c-0.311-0.078-0.623-0.148-0.937-0.204c-0.124-0.023-0.247-0.041-0.371-0.058
			l-0.101-0.015c-0.305-0.045-0.611-0.086-0.924-0.111c-0.143-0.012-0.286-0.018-0.429-0.023l-0.294-0.016
			c-0.157-0.01-0.313-0.02-0.473-0.02h-5.468v-63.137c0-7.634-3.707-11.344-11.331-11.344h-49.458
			c-7.64,0-11.354,3.71-11.354,11.342v42.614l-8.75-5.052c-1.184-0.685-2.53-1.046-3.892-1.046c-2.778,0-5.367,1.493-6.754,3.896
			c-1.042,1.803-1.319,3.904-0.78,5.914c0.539,2.011,1.829,3.691,3.632,4.732l10.545,6.089v-3.464l-9.045-5.223
			c-1.109-0.64-1.902-1.674-2.234-2.91c-0.331-1.236-0.161-2.528,0.48-3.637c0.853-1.479,2.446-2.397,4.156-2.397
			c0.835,0,1.662,0.222,2.391,0.644l10.25,5.918v11.063h3v-9.331v-3.464v-44.346c0-5.925,2.42-8.342,8.354-8.342h49.458
			c5.918,0,8.331,2.418,8.331,8.344V610l-14.409-0.001c-3.905,0.001-7.573,1.529-10.324,4.298l-17.289,17.288l1.057,1.061
			c0.651,0.653,1.333,1.335,1.899,1.901l-0.004,0.003l1.299,1.294c5.676,5.654,14.903,5.645,20.57-0.021l5.277-5.275l11.925,0.001
			l-0.001,20.671c0.004,8.011,6.521,14.544,14.536,14.561l0.754-0.002l-0.009-3l-0.746,0.002
			c-6.357-0.014-11.533-5.201-11.535-11.562l0.001-23.67l-16.167-0.001l-6.156,6.153c-4.444,4.443-11.644,4.504-16.162,0.182
			l-0.166-0.166c0,0-0.988-0.986-2.131-2.13l15.174-15.173c2.188-2.202,5.1-3.415,8.2-3.415L554.15,613
			c0.092,0,0.182,0.007,0.271,0.013l0.375,0.02c0.103,0.004,0.206,0.008,0.308,0.016c0.246,0.02,0.487,0.053,0.731,0.089
			l0.119,0.017c0.084,0.012,0.166,0.023,0.253,0.039c0.251,0.045,0.5,0.102,0.746,0.163l0.086,0.021
			c0.086,0.022,0.173,0.043,0.253,0.065c0.24,0.068,0.478,0.147,0.714,0.23c0.123,0.042,0.245,0.086,0.367,0.134
			c0.209,0.081,0.413,0.171,0.615,0.264c0.149,0.069,0.299,0.139,0.445,0.214c0.163,0.083,0.322,0.173,0.486,0.267
			c0.181,0.103,0.358,0.209,0.527,0.319c0.116,0.075,0.23,0.153,0.353,0.241c0.202,0.141,0.401,0.289,0.593,0.442l0.236,0.197
			c0.212,0.18,0.419,0.365,0.628,0.57l0.162,0.166c0.205,0.209,0.404,0.426,0.597,0.655l0.139,0.175
			c0.185,0.23,0.365,0.464,0.538,0.716l0.255,0.39c0.079,0.119,0.16,0.237,0.231,0.36l6.056,10.491l-0.002,0.001l9.874,17.098
			v-5.999L574.423,630.535z M478.773,657.785C478.773,657.785,478.773,657.785,478.773,657.785L478.773,657.785
			C478.772,657.785,478.772,657.785,478.773,657.785h-3.974c-1.788,0-3.469-0.696-4.733-1.96c-1.264-1.264-1.96-2.944-1.96-4.732
			c0-3.69,3.003-6.692,6.693-6.692h3.973c3.69,0,6.693,3.002,6.693,6.692c0,1.788-0.696,3.468-1.96,4.732
			C482.241,657.089,480.56,657.785,478.773,657.785z M474.799,647.401c-2.036,0-3.693,1.656-3.693,3.692
			c0,2.036,1.656,3.692,3.691,3.692h3.976l0,0c0.986,0,1.913-0.384,2.61-1.081c0.697-0.697,1.081-1.624,1.081-2.611
			c0-2.036-1.657-3.692-3.693-3.692H474.799z M483.761,624.084c0.323-0.237,0.636-0.492,0.925-0.781
			c1.471-1.472,2.281-3.429,2.28-5.51c0-4.297-3.496-7.794-7.793-7.794h-3.274c-4.297,0-7.793,3.497-7.793,7.793
			c-0.001,2.082,0.809,4.039,2.28,5.511c0.289,0.289,0.601,0.544,0.924,0.781c-1.939,1.418-3.205,3.705-3.205,6.286
			c-0.001,2.082,0.809,4.039,2.28,5.511c1.471,1.472,3.428,2.283,5.513,2.283h3.278h0c2.081,0,4.037-0.811,5.508-2.283
			c1.471-1.472,2.281-3.429,2.28-5.51C486.966,627.79,485.7,625.503,483.761,624.084z M475.899,612.999h3.274
			c2.643,0,4.793,2.15,4.793,4.794c0,1.28-0.497,2.484-1.402,3.389c-0.883,0.883-2.031,1.399-3.295,1.399l-3.483-0.001
			c-1.252,0-2.398-0.52-3.277-1.399c-0.905-0.905-1.403-2.109-1.402-3.389C471.106,615.15,473.256,612.999,475.899,612.999z
			 M482.563,633.761c-0.905,0.905-2.108,1.403-3.387,1.403h-3.282c-1.279,0-2.482-0.499-3.387-1.403
			c-0.905-0.905-1.403-2.109-1.402-3.39c0-2.622,2.138-4.789,4.732-4.789c0.02,0,3.378,0,3.398,0c2.633,0,4.73,2.167,4.73,4.789
			C483.966,631.652,483.468,632.856,482.563,633.761z"/>
		<path fill="#E35500" d="M533.758,630.548l-5.277,5.275c-5.667,5.665-14.894,5.674-20.57,0.021l-1.299-1.294l0.004-0.003
			c-0.566-0.565-1.248-1.248-1.899-1.901l-1.057-1.061l17.289-17.288c2.751-2.769,6.419-4.297,10.324-4.298h8.128v-63.073h-53.579
			v66.825c0.72,1.18,1.143,2.561,1.143,4.042c0,1.454-0.402,2.843-1.143,4.052v4.499c0.718,1.176,1.143,2.55,1.143,4.027
			c0,1.454-0.402,2.843-1.143,4.052v17.873h53.579v-21.748L533.758,630.548z"/>
		<rect x="485.822" y="546.925" fill="#EFAB1F" width="53.581" height="26.342"/>
		<rect x="485.822" y="573.268" opacity="0.7" fill="#EFAB1F" width="53.581" height="26.341"/>
		<path opacity="0.4" fill="#EFAB1F" d="M520.949,614.297c2.751-2.769,6.419-4.297,10.324-4.298h8.13v-10.386h-53.581v14.137
			c0.72,1.181,1.143,2.562,1.143,4.043c0,1.455-0.403,2.844-1.143,4.054v4.108h23.468L520.949,614.297z"/>
	</g>
	<g>
		<path d="M1062.728,183.968c3.515,0,6.375-2.86,6.375-6.375s-2.86-6.375-6.375-6.375s-6.375,2.86-6.375,6.375
			S1059.213,183.968,1062.728,183.968z M1062.728,174.218c1.861,0,3.375,1.514,3.375,3.375s-1.514,3.375-3.375,3.375
			s-3.375-1.514-3.375-3.375S1060.867,174.218,1062.728,174.218z"/>
		<path d="M1160.707,183.968c3.515,0,6.375-2.86,6.375-6.375s-2.86-6.375-6.375-6.375s-6.375,2.86-6.375,6.375
			S1157.192,183.968,1160.707,183.968z M1160.707,174.218c1.861,0,3.375,1.514,3.375,3.375s-1.514,3.375-3.375,3.375
			s-3.375-1.514-3.375-3.375S1158.846,174.218,1160.707,174.218z"/>
		<g>
			<g>
				<g>
					<path fill="#942582" d="M1111.996,216.295c0-23.01,0-63.57,0-78c22.5,0,39,17.461,39,39
						C1150.996,198.834,1134.496,216.295,1111.996,216.295z"/>
					<path fill="#EFAB1F" d="M1145.791,157.965c-6.743-12.75-18.795-19.669-33.795-19.669c0,4.445,0,9.919,0,19.669H1145.791z"/>
					<path opacity="0.7" fill="#EFAB1F" d="M1111.996,157.965c0,6,0,12,0,19.5h39.014c0-7.5-1.9-15-5.219-19.5H1111.996z"/>
					<path opacity="0.4" fill="#EFAB1F" d="M1111.996,196.965h33.795c3.318-5.25,5.219-12,5.219-19.5h-39.014
						C1111.996,184.215,1111.996,190.215,1111.996,196.965z"/>
				</g>
				<path d="M1112.01,216.022c-21.354,0-38.727-17.373-38.727-38.727s17.373-38.727,38.727-38.727v3
					c-19.7,0-35.727,16.027-35.727,35.727s16.027,35.727,35.727,35.727V216.022z M1121.193,245.958l1.303-0.173v-9.863
					c3.21-0.523,6.075-1.279,9.391-2.476l4.96,8.543l1.208-0.493c5.895-2.403,11.429-5.613,16.448-9.539l1.026-0.802l-4.908-8.512
					c2.409-2.055,4.658-4.302,6.706-6.703l8.486,4.898l0.802-1.035c3.905-5.041,7.087-10.585,9.459-16.48l0.487-1.211l-8.432-4.844
					c0.989-2.827,1.837-6.052,2.447-9.304h9.706l0.166-1.312c0.418-3.319,0.605-6.061,0.605-8.89c0-3.148-0.23-6.348-0.683-9.51
					l-0.185-1.287h-9.574c-0.53-3.262-1.302-6.214-2.479-9.487l8.244-4.833l-0.496-1.206c-2.432-5.912-5.659-11.443-9.591-16.44
					l-0.802-1.019l-8.153,4.689c-2.062-2.418-4.31-4.668-6.705-6.713l4.681-8.113l-1.035-0.802
					c-5.042-3.908-10.586-7.092-16.478-9.464l-1.202-0.484l-4.705,8.053c-3.32-1.199-6.187-1.956-9.395-2.479V109.4l-1.303-0.173
					c-3.27-0.433-6.17-0.635-9.128-0.635c-3.022,0-6.055,0.214-9.272,0.653l-1.297,0.177v9.246c-3.193,0.523-6.12,1.294-9.405,2.476
					l-4.659-8.012l-1.206,0.488c-5.911,2.392-11.455,5.585-16.477,9.493l-1.031,0.802l4.628,8.031
					c-2.41,2.056-4.659,4.303-6.707,6.703l-8.062-4.653l-0.803,1.023c-3.948,5.026-7.169,10.548-9.575,16.414l-0.491,1.196
					l8.129,4.84c-1.179,3.278-1.952,6.232-2.483,9.495h-9.435l-0.185,1.287c-0.454,3.164-0.684,6.364-0.684,9.51
					c0,2.826,0.186,5.568,0.605,8.89l0.165,1.313h9.568c0.61,3.252,1.459,6.478,2.447,9.305l-8.318,4.79l0.484,1.208
					c2.364,5.893,5.54,11.439,9.44,16.484l0.802,1.037l8.39-4.847c2.05,2.402,4.297,4.648,6.702,6.701l-4.87,8.435l1.023,0.803
					c5.024,3.944,10.547,7.164,16.416,9.569l1.205,0.494l4.975-8.502c3.284,1.183,6.213,1.955,9.408,2.477v9.841l1.297,0.177
					c3.22,0.44,6.253,0.653,9.272,0.653C1115.023,246.593,1117.923,246.391,1121.193,245.958z M1104.496,233.327l-1.292-0.181
					c-3.922-0.55-7.179-1.404-11.243-2.948l-1.187-0.451l-4.929,8.423c-4.772-2.068-9.294-4.704-13.473-7.856l4.831-8.368
					l-0.988-0.807c-2.952-2.411-5.67-5.128-8.077-8.075l-0.807-0.988l-8.306,4.798c-3.112-4.194-5.711-8.732-7.743-13.521
					l8.25-4.751l-0.454-1.195c-1.24-3.264-2.289-7.239-2.955-11.192l-0.211-1.251h-9.438c-0.292-2.62-0.425-4.885-0.425-7.203
					c0-2.579,0.162-5.196,0.482-7.797h9.417l0.181-1.292c0.555-3.955,1.437-7.341,2.949-11.321l0.448-1.177l-8.05-4.793
					c2.069-4.772,4.708-9.297,7.864-13.48l7.995,4.615l0.807-0.988c2.404-2.943,5.123-5.661,8.081-8.077l0.987-0.806l-4.584-7.954
					c4.18-3.121,8.718-5.736,13.524-7.791l4.619,7.943l1.19-0.452c4.065-1.544,7.322-2.399,11.243-2.948l1.292-0.181v-9.211
					c2.605-0.309,5.093-0.46,7.569-0.46c2.425,0,4.816,0.143,7.431,0.447v9.224l1.292,0.181c3.903,0.547,7.156,1.402,11.23,2.949
					l1.187,0.451l4.667-7.989c4.791,2.039,9.33,4.646,13.525,7.767l-4.634,8.032l0.988,0.806c2.934,2.396,5.651,5.117,8.077,8.086
					l0.806,0.986l8.089-4.652c3.145,4.162,5.788,8.693,7.876,13.501l-8.162,4.785l0.45,1.185c1.512,3.978,2.393,7.364,2.948,11.321
					l0.181,1.292h9.556c0.32,2.6,0.482,5.217,0.482,7.797c0,2.32-0.133,4.586-0.425,7.203h-9.576l-0.211,1.251
					c-0.665,3.954-1.715,7.928-2.955,11.192l-0.454,1.196l8.361,4.804c-2.038,4.79-4.642,9.327-7.758,13.517l-8.404-4.851
					l-0.807,0.988c-2.405,2.944-5.123,5.661-8.08,8.077l-0.987,0.806l4.867,8.441c-4.176,3.136-8.706,5.763-13.498,7.828
					l-4.916-8.469l-1.191,0.452c-4.07,1.547-7.323,2.401-11.23,2.949l-1.292,0.181v9.818c-2.615,0.304-5.005,0.447-7.431,0.447
					c-2.474,0-4.962-0.151-7.569-0.46V233.327z"/>
			</g>
			<g>
				<path d="M1106.053,134.95h12v-12h-12V134.95z M1109.053,125.95h6v6h-6V125.95z"/>
			</g>
			<g>
				<path d="M1106.053,232.198h12v-12h-12V232.198z M1109.053,223.198h6v6h-6V223.198z"/>
			</g>
		</g>
	</g>
	<g>
		<g>
			<path fill="#148FCF" d="M943.295,41.357c-5.188-8.964-14.874-15-25.977-15c-11.102,0-20.789,6.036-25.977,15
				c-2.554,4.414-4.023,9.534-4.023,15s1.469,10.586,4.023,15c5.188,8.964,14.874,15,25.977,15c11.102,0,20.789-6.036,25.977-15
				c2.554-4.414,4.023-9.534,4.023-15S945.849,45.77,943.295,41.357z"/>
			<path opacity="0.4" fill="#EFAB1F" d="M891.341,41.357c-2.554,4.414-4.023,9.534-4.023,15h60c0-5.466-1.469-10.586-4.023-15
				H891.341z"/>
			<path opacity="0.7" fill="#EFAB1F" d="M891.341,71.357h51.953c2.554-4.414,4.023-9.534,4.023-15h-60
				C887.318,61.823,888.787,66.943,891.341,71.357z"/>
			<path fill="#EFAB1F" d="M943.295,71.357h-51.953c5.188,8.964,14.874,15,25.977,15C928.42,86.357,938.107,80.321,943.295,71.357z"
				/>
		</g>
		<path d="M944.903,29.054c-7.434-7.543-17.231-11.697-27.585-11.697s-20.15,4.154-27.585,11.697
			c-7.255,7.36-11.415,17.648-11.415,28.225c0,10.18,3.806,19.85,10.743,27.257c7.81,7.924,12.662,21.813,12.662,36.247v1.5h31.189
			v-1.5c0-14.901,4.37-27.882,11.99-35.613c7.361-7.469,11.415-17.374,11.415-27.891C956.318,46.702,952.157,36.414,944.903,29.054z
			 M942.766,83.064c-7.908,8.023-12.55,21.161-12.839,36.219h-11.109V92.732h-3v26.551h-11.112
			c-0.328-14.654-5.44-28.666-13.482-36.825c-6.388-6.821-9.906-15.763-9.906-25.178c0-9.795,3.846-19.315,10.552-26.119
			c6.866-6.966,15.904-10.803,25.448-10.803s18.582,3.836,25.448,10.803c6.706,6.804,10.552,16.324,10.552,26.119
			C953.318,67.002,949.57,76.16,942.766,83.064z M899.318,128.357h36v3h-36V128.357z M899.318,137.357h36v3h-36V137.357z
			 M908.318,146.357h-9v3h9v12h18v-12h9v-3h-9H908.318z M923.318,158.357h-12v-9h12V158.357z"/>
	</g>
	<g>
		<path d="M671.271,123.364h1.982v20.727h-1.982V123.364z"/>
		<path d="M678.435,129.339h1.928v2.324c0.711-0.711,1.533-1.324,2.468-1.839s1.989-0.772,3.165-0.772
			c1.458,0,2.555,0.383,3.288,1.148s1.101,1.841,1.101,3.227v10.664h-1.928v-10.309c0-1.039-0.237-1.812-0.711-2.317
			s-1.217-0.759-2.229-0.759c-0.948,0-1.834,0.228-2.659,0.684s-1.656,1.085-2.495,1.887v10.814h-1.928V129.339z"/>
		<path d="M699.968,144.337c-0.839,0-1.632-0.152-2.379-0.458s-1.393-0.774-1.935-1.408s-0.973-1.427-1.292-2.379
			s-0.479-2.076-0.479-3.37c0-1.285,0.159-2.408,0.479-3.37s0.759-1.759,1.319-2.393s1.224-1.109,1.989-1.429
			s1.586-0.479,2.461-0.479c0.957,0,1.846,0.219,2.666,0.656s1.518,0.984,2.092,1.641v-7.984h1.941v17.09
			c0,0.894,0.032,1.629,0.096,2.208s0.178,1.055,0.342,1.429h-2.037c-0.091-0.265-0.171-0.593-0.239-0.984s-0.103-0.784-0.103-1.176
			c-0.593,0.656-1.285,1.222-2.078,1.695S701.07,144.337,699.968,144.337z M700.296,142.696c0.921,0,1.738-0.217,2.454-0.649
			s1.429-1.023,2.14-1.771v-7.164c-0.729-0.784-1.461-1.386-2.194-1.805s-1.533-0.629-2.399-0.629c-0.647,0-1.246,0.121-1.798,0.362
			s-1.023,0.61-1.415,1.107s-0.699,1.128-0.923,1.894s-0.335,1.668-0.335,2.707c0,1.012,0.116,1.892,0.349,2.639
			s0.554,1.367,0.964,1.859s0.887,0.856,1.429,1.094S699.686,142.696,700.296,142.696z"/>
		<path d="M715.554,144.405c-1.477,0-2.577-0.388-3.302-1.162s-1.087-1.854-1.087-3.24v-10.664h1.928v10.322
			c0,1.048,0.232,1.825,0.697,2.331s1.212,0.759,2.242,0.759c0.948,0,1.83-0.234,2.646-0.704s1.643-1.096,2.481-1.88v-10.828h1.955
			v14.752h-1.955v-2.324c-0.711,0.711-1.533,1.328-2.468,1.853S716.711,144.405,715.554,144.405z"/>
		<path d="M732.329,144.364c-1.321,0-2.477-0.246-3.466-0.738s-1.766-1.121-2.331-1.887l1.23-1.121
			c0.565,0.656,1.215,1.176,1.948,1.559s1.615,0.574,2.646,0.574c1.267,0,2.224-0.221,2.871-0.663s0.971-1.082,0.971-1.921
			c0-0.802-0.319-1.408-0.957-1.818s-1.673-0.784-3.104-1.121c-0.839-0.2-1.581-0.417-2.229-0.649s-1.185-0.513-1.613-0.841
			s-0.75-0.716-0.964-1.162s-0.321-0.998-0.321-1.654c0-0.52,0.111-1.014,0.335-1.483s0.549-0.882,0.978-1.237
			s0.95-0.636,1.565-0.841s1.324-0.308,2.126-0.308c1.276,0,2.343,0.191,3.199,0.574s1.613,0.902,2.27,1.559l-1.094,1.285
			c-0.556-0.556-1.189-0.998-1.9-1.326s-1.513-0.492-2.406-0.492c-0.583,0-1.075,0.062-1.477,0.185s-0.727,0.287-0.978,0.492
			s-0.438,0.438-0.561,0.697s-0.185,0.531-0.185,0.813c0,0.711,0.275,1.251,0.827,1.62s1.47,0.704,2.755,1.005
			c0.921,0.228,1.729,0.463,2.427,0.704s1.285,0.54,1.764,0.896s0.834,0.774,1.066,1.258s0.349,1.089,0.349,1.818
			c0,0.675-0.146,1.273-0.438,1.798s-0.688,0.969-1.189,1.333s-1.103,0.638-1.805,0.82S733.168,144.364,732.329,144.364z"/>
		<path d="M746.357,144.282c-1.413,0-2.413-0.285-3.001-0.854s-0.882-1.497-0.882-2.782v-9.652h-2.584v-1.654h2.584v-5.291h1.928
			v5.291h3.828v1.654h-3.828v9.256c0,0.784,0.159,1.383,0.479,1.798s0.935,0.622,1.846,0.622c0.282,0,0.559-0.016,0.827-0.048
			s0.508-0.084,0.718-0.157v1.654c-0.228,0.036-0.52,0.073-0.875,0.109S746.694,144.282,746.357,144.282z"/>
		<path d="M751.689,129.339h1.928v2.912h0.055c0.583-0.921,1.342-1.684,2.276-2.29s2.126-0.909,3.575-0.909h0.342l-0.191,1.791
			h-0.287c-0.073,0-0.137-0.005-0.191-0.014s-0.091-0.014-0.109-0.014c-1.222,0-2.292,0.319-3.213,0.957s-1.673,1.545-2.256,2.721
			v9.598h-1.928V129.339z"/>
		<path d="M762.859,123.842h2.051v2.078h-2.051V123.842z M762.913,129.339h1.928v14.752h-1.928V129.339z"/>
		<path d="M772.743,144.337c-1.321,0-2.347-0.326-3.076-0.978s-1.094-1.557-1.094-2.714c0-0.729,0.169-1.406,0.506-2.03
			s0.897-1.198,1.682-1.723s1.812-0.991,3.083-1.401s2.846-0.757,4.724-1.039V133.7c0-1.021-0.255-1.779-0.766-2.276
			s-1.253-0.745-2.229-0.745c-1.176,0-2.192,0.219-3.049,0.656s-1.677,0.993-2.461,1.668l-1.039-1.203
			c0.894-0.82,1.873-1.483,2.939-1.989s2.329-0.759,3.787-0.759c1.659,0,2.862,0.415,3.609,1.244s1.121,1.982,1.121,3.459v6.699
			c0,0.894,0.032,1.629,0.096,2.208s0.169,1.055,0.314,1.429h-1.982c-0.091-0.319-0.171-0.641-0.239-0.964s-0.103-0.704-0.103-1.142
			c-0.856,0.784-1.762,1.372-2.714,1.764S773.864,144.337,772.743,144.337z M773.167,142.751c1.048,0,2.019-0.205,2.912-0.615
			s1.723-0.979,2.488-1.709v-4.594c-1.586,0.265-2.896,0.559-3.931,0.882s-1.859,0.677-2.475,1.06s-1.048,0.793-1.299,1.23
			s-0.376,0.902-0.376,1.395c0,0.784,0.237,1.372,0.711,1.764S772.328,142.751,773.167,142.751z"/>
		<path d="M784.952,123.364h1.928v20.727h-1.928V123.364z"/>
		<path d="M714.672,159.364h1.982v20.727h-1.982V159.364z"/>
		<path d="M727.688,180.405c-0.894,0-1.748-0.169-2.563-0.506s-1.531-0.834-2.146-1.49s-1.101-1.458-1.456-2.406
			s-0.533-2.042-0.533-3.281c0-1.23,0.178-2.322,0.533-3.274s0.836-1.755,1.442-2.406s1.317-1.146,2.133-1.483
			s1.68-0.506,2.591-0.506c0.894,0,1.745,0.169,2.557,0.506s1.52,0.832,2.126,1.483s1.087,1.454,1.442,2.406
			s0.533,2.044,0.533,3.274c0,1.239-0.178,2.333-0.533,3.281s-0.836,1.75-1.442,2.406s-1.314,1.153-2.126,1.49
			S728.581,180.405,727.688,180.405z M727.688,178.751c0.747,0,1.41-0.15,1.989-0.451s1.073-0.718,1.483-1.251
			s0.723-1.167,0.937-1.9s0.321-1.552,0.321-2.454c0-0.802-0.103-1.565-0.308-2.29s-0.504-1.358-0.896-1.9s-0.882-0.978-1.47-1.306
			s-1.273-0.492-2.058-0.492c-0.747,0-1.415,0.15-2.003,0.451s-1.087,0.716-1.497,1.244s-0.723,1.162-0.937,1.9
			s-0.321,1.536-0.321,2.393c0,0.82,0.098,1.595,0.294,2.324s0.494,1.369,0.896,1.921s0.9,0.991,1.497,1.319
			S726.904,178.751,727.688,178.751z"/>
		<path d="M743.397,161.223h-6.686v-1.859h15.367v1.859h-6.686v18.867h-1.996V161.223z"/>
	</g>
	<g>
		<path d="M1105.958,323.199l-0.097-1.387h-1.395c-4.223,0-6.562-2.205-7.86-4.643c-1.552-2.94-1.598-6.232-1.598-6.48v-1.177
			l-7.297-1.77l-46.245-11.22l-46.245,11.22l-7.298,1.77v1.177c0,3-0.682,5.19-1.688,6.788c-2.64,4.23-7.492,4.335-7.77,4.335
			h-1.395l-0.097,1.387c-0.015,0.203-1.44,20.64,5.677,45.203c0.982,3.39,2.16,6.967,3.585,10.665
			c2.52,6.585,5.798,13.537,10.058,20.482c6.495,10.613,15.27,21.188,27.12,30.345c5.175,4.005,10.935,7.74,17.355,11.085
			l0.698,0.367l0.698-0.367c6.42-3.345,12.18-7.08,17.355-11.085c11.85-9.158,20.625-19.733,27.12-30.345
			c4.208-6.863,7.463-13.732,9.968-20.25c1.463-3.78,2.67-7.432,3.675-10.897C1107.398,343.839,1105.973,323.401,1105.958,323.199z
			 M1097.371,367.666c-0.24,0.833-0.495,1.68-0.765,2.543c-2.828,9.038-7.08,19.238-13.5,29.34
			c-6.818,10.733-16.065,21.345-28.613,30.345c-3.997,2.865-8.333,5.572-13.027,8.062c-4.695-2.49-9.03-5.198-13.027-8.062
			c-12.548-9-21.795-19.613-28.612-30.345c-6.488-10.215-10.763-20.52-13.59-29.633c-0.232-0.757-0.457-1.507-0.675-2.25
			c-5.992-20.632-5.835-38.265-5.663-42.997c1.553-0.247,4.087-0.908,6.337-2.708c2.348-1.867,4.388-4.957,4.658-10.087l17.04-4.133
			l33.532-8.13l33.517,8.13l17.07,4.14c0.247,3.142,1.47,7.387,4.552,10.132c1.605,1.433,3.698,2.46,6.427,2.73
			C1103.206,329.581,1103.333,347.139,1097.371,367.666z"/>
		<path fill="#942582" d="M1049.693,354.564c0.022,1.628,0.007,3.262,0.007,4.89v0.397h-16.47v-5.303
			c0.007-4.327,2.97-7.732,7.252-8.332c4.17-0.585,8.348,2.453,9.06,6.608C1049.641,353.394,1049.686,353.979,1049.693,354.564z
			 M1095.578,330.819c-0.037,2.205-0.158,4.92-0.42,8.04c-0.6,7.275-1.973,16.762-4.973,27.12c-0.315,1.088-0.637,2.16-0.982,3.225
			c-3.547,11.175-8.483,21.36-14.693,30.345c-0.45,0.66-0.915,1.305-1.38,1.95c-8.385,11.55-19.02,21.083-31.673,28.388
			c-12.54-7.245-23.107-16.68-31.455-28.095c-0.54-0.735-1.073-1.485-1.59-2.242c-6.218-8.985-11.153-19.17-14.708-30.345
			c-0.277-0.87-0.547-1.755-0.81-2.64c-3.098-10.53-4.507-20.258-5.122-27.705c-0.263-3.217-0.383-6.008-0.42-8.25
			c0.367-0.172,0.712-0.367,1.073-0.578c2.82-1.62,7.073-5.04,9-11.52l44.032-10.68l44.228,10.725
			c0.248,0.818,0.562,1.672,0.938,2.527C1088.551,325.546,1091.656,328.869,1095.578,330.819z M1060.666,362.791
			c0-1.762-1.155-2.917-2.918-2.917h-2.565v-0.45c0-1.59,0.015-3.188-0.008-4.777c-0.022-0.855-0.068-1.71-0.195-2.55
			c-0.81-5.31-5.07-9.863-10.297-11.033c-0.728-0.165-1.47-0.262-2.205-0.39h-2.025c-0.465,0.075-0.938,0.143-1.41,0.225
			c-6.338,1.103-11.093,6.578-11.273,13.013c-0.052,1.823-0.015,3.652-0.022,5.475v0.488h-2.527c-1.815,0-2.955,1.14-2.955,2.962
			v21.562c0,1.763,1.155,2.91,2.925,2.91h32.557c1.763,0,2.918-1.155,2.918-2.918V362.791z"/>
		<path fill="#EFAB1F" d="M1095.578,330.819c-0.037,2.205-0.158,4.92-0.42,8.04H987.773c-0.263-3.217-0.383-6.008-0.42-8.25
			c0.367-0.172,0.712-0.367,1.073-0.578c2.82-1.62,7.073-5.04,9-11.52l44.032-10.68l44.228,10.725
			c0.248,0.818,0.562,1.672,0.938,2.527C1088.551,325.546,1091.656,328.869,1095.578,330.819z"/>
		<path opacity="0.7" fill="#EFAB1F" d="M1049.693,354.564c0.022,1.628,0.007,3.262,0.007,4.89v0.397h-16.47v-5.303
			c0.007-4.327,2.97-7.732,7.252-8.332c4.17-0.585,8.348,2.453,9.06,6.608C1049.641,353.394,1049.686,353.979,1049.693,354.564z
			 M987.773,338.859c0.615,7.447,2.025,17.175,5.122,27.705c0.263,0.885,0.533,1.77,0.81,2.64h28.56v-6.368
			c0-1.823,1.14-2.962,2.955-2.962h2.527v-0.488c0.008-1.823-0.03-3.652,0.022-5.475c0.18-6.435,4.935-11.91,11.273-13.013
			c0.473-0.082,0.945-0.15,1.41-0.225h2.025c0.735,0.128,1.477,0.225,2.205,0.39c5.227,1.17,9.487,5.723,10.297,11.033
			c0.127,0.84,0.172,1.695,0.195,2.55c0.023,1.59,0.008,3.188,0.008,4.777v0.45h2.565c1.763,0,2.918,1.155,2.918,2.917v6.413h28.537
			c0.345-1.065,0.667-2.138,0.982-3.225c3-10.357,4.373-19.845,4.973-27.12H987.773z"/>
		<path opacity="0.4" fill="#EFAB1F" d="M1089.203,369.204c-3.547,11.175-8.483,21.36-14.693,30.345h-66.098
			c-6.218-8.985-11.153-19.17-14.708-30.345h28.56v15.195c0,1.763,1.155,2.91,2.925,2.91h32.557c1.763,0,2.918-1.155,2.918-2.918
			v-15.187H1089.203z"/>
	</g>
	<g>
		<path fill="#4FB81C" d="M912.449,587.689c0-5.433,2.18-9.837,4.868-9.84v-10.603h-9.225c-7.343,0.086-13.722,4.248-16.974,10.327
			l-0.005,0.01c-1.417,2.652-2.236,5.668-2.283,8.869v22.088h28.487v-11.01C914.629,597.525,912.449,593.122,912.449,587.689z"/>
		<path fill="#EFAB1F" d="M891.119,577.573l-0.001,0.001h26.199v-10.325h-9.296C900.709,567.361,894.36,571.513,891.119,577.573z"/>
		<path opacity="0.7" fill="#EFAB1F" d="M912.449,587.689c0-5.433,2.18-9.837,4.868-9.84v-0.278H891.12
			c0,0.001-0.001,0.001-0.001,0.002l-0.005,0.01c-1.417,2.652-2.236,5.668-2.283,8.869v1.445h23.624
			C912.454,587.826,912.449,587.758,912.449,587.689z"/>
		<path opacity="0.4" fill="#EFAB1F" d="M912.455,587.891h-23.624v10.325h28.487v-0.687
			C914.663,597.526,912.508,593.229,912.455,587.891z"/>
		<path fill="#1D1D1B" d="M945.806,642.603c-0.528,15.398-13.047,27.481-28.485,27.481c-15.437,0-27.943-12.083-28.472-27.508
			c-0.016-0.311-0.025-28.029-0.025-28.029h3c0,0,0.007,27.615,0.022,27.9c0.474,13.826,11.663,24.636,25.475,24.636
			s25.02-10.811,25.492-24.61c0.016-0.312,0-33.925,0-33.925h-25.495v-3h25.495v-18.81c0-9.098-7.395-16.5-16.493-16.5h-3.009v-3
			h3.009c10.752,0,19.487,8.748,19.487,19.5C945.797,642.255,945.824,642.255,945.806,642.603z M923.693,587.689
			c0-6.465-2.739-11.34-6.372-11.34c-3.632,0-6.371,4.875-6.371,11.34s2.739,11.341,6.371,11.341
			C920.954,599.029,923.693,594.154,923.693,587.689z M920.693,587.689c0,5.091-1.997,8.34-3.372,8.34
			c-1.374,0-3.371-3.249-3.371-8.34s1.997-8.34,3.371-8.34C918.696,579.348,920.693,582.597,920.693,587.689z M912.849,538.258
			c-4.761-3.362-9.258-6.537-9.258-13.434c0-0.008,0.001-0.017,0.001-0.025h-3c0,0.008-0.001,0.017-0.001,0.025
			c0,8.451,5.593,12.401,10.528,15.885c4.518,3.19,8.418,5.945,8.418,11.597c0,3.055-0.59,6.236-1.291,8.938h3.101
			c0.664-2.728,1.189-5.862,1.189-8.938C922.537,545.1,917.612,541.622,912.849,538.258z"/>
	</g>
	<g>
		<path d="M400.56,241.617h-69v-3h69c8.271,0,15-6.729,15-15s-6.729-15-15-15h-69v-3h69c9.925,0,18,8.075,18,18
			S410.485,241.617,400.56,241.617z M331.56,238.617h-69c-8.271,0-15-6.729-15-15s6.729-15,15-15h69v-3h-69c-9.925,0-18,8.075-18,18
			s8.075,18,18,18h69V238.617z M280.56,223.617c0-4.963-4.037-9-9-9s-9,4.037-9,9s4.037,9,9,9S280.56,228.58,280.56,223.617z
			 M277.56,223.617c0,3.308-2.692,6-6,6s-6-2.692-6-6s2.692-6,6-6S277.56,220.309,277.56,223.617z M304.56,223.617
			c0-4.963-4.037-9-9-9s-9,4.037-9,9s4.037,9,9,9S304.56,228.58,304.56,223.617z M301.56,223.617c0,3.308-2.692,6-6,6s-6-2.692-6-6
			s2.692-6,6-6S301.56,220.309,301.56,223.617z M328.56,223.617c0-4.963-4.037-9-9-9s-9,4.037-9,9s4.037,9,9,9
			S328.56,228.58,328.56,223.617z M325.56,223.617c0,3.308-2.692,6-6,6s-6-2.692-6-6s2.692-6,6-6S325.56,220.309,325.56,223.617z
			 M352.56,223.617c0-4.963-4.037-9-9-9s-9,4.037-9,9s4.037,9,9,9S352.56,228.58,352.56,223.617z M349.56,223.617
			c0,3.308-2.692,6-6,6s-6-2.692-6-6s2.692-6,6-6S349.56,220.309,349.56,223.617z M376.56,223.617c0-4.963-4.037-9-9-9s-9,4.037-9,9
			s4.037,9,9,9S376.56,228.58,376.56,223.617z M373.56,223.617c0,3.308-2.692,6-6,6s-6-2.692-6-6s2.692-6,6-6
			S373.56,220.309,373.56,223.617z M400.56,223.617c0-4.963-4.037-9-9-9s-9,4.037-9,9s4.037,9,9,9S400.56,228.58,400.56,223.617z
			 M397.56,223.617c0,3.308-2.692,6-6,6s-6-2.692-6-6s2.692-6,6-6S397.56,220.309,397.56,223.617z"/>
		<g>
			<g>
				<rect x="274.56" y="145.617" fill="#942582" width="45" height="60"/>
				<rect x="340.56" y="169.617" fill="#942582" width="45" height="36"/>
			</g>
			<g>
				<g>
					<rect x="274.56" y="160.617" opacity="0.4" fill="#EFAB1F" width="45" height="15"/>
					<rect x="274.56" y="175.617" opacity="0.7" fill="#EFAB1F" width="45" height="15"/>
					<rect x="274.56" y="190.617" fill="#EFAB1F" width="45" height="15"/>
				</g>
				<g>
					<rect x="340.56" y="178.617" opacity="0.4" fill="#EFAB1F" width="45" height="9"/>
					<rect x="340.56" y="187.617" opacity="0.7" fill="#EFAB1F" width="45" height="9"/>
					<rect x="340.56" y="196.617" fill="#EFAB1F" width="45" height="9"/>
				</g>
			</g>
		</g>
	</g>
	<g>
		<rect x="718.617" y="406.024" fill="#148FCF" width="109.742" height="15.316"/>
		<rect x="718.617" y="406.024" fill="#EFAB1F" width="27.439" height="15.316"/>
		<rect x="746.045" y="406.024" opacity="0.7" fill="#EFAB1F" width="27.441" height="15.316"/>
		<rect x="773.487" y="406.024" opacity="0.4" fill="#EFAB1F" width="27.439" height="15.316"/>
		<path d="M757.697,421.34h-4v-15.314h4V421.34z M793.061,406.025h-4v15.314h4V406.025z M722.334,406.025h-4v15.314h4V406.025z
			 M828.422,406.025h-4v15.314h4V406.025z M670.694,398.842H632.74v-11.314h37.953v-4H628.74v19.314h41.953V398.842z
			 M670.694,368.852H632.74v-11.314h37.953v-4H628.74v19.314h41.953V368.852z M697.11,440.189v-37.36h-11.391v36.532h-69.004
			V318.867h25.031V330.9h7.963l2.869-77.568h16.746l2.869,77.568h13.525v33.559l11.391-15.369v-34.536h30.965v-12.025h16.023v12.025
			h0.004v51.89l40.035,20.479v-22.662l40.56,22.589l2.472-76.205h16.746l3.302,79.502l0.002,50.044H697.11z M732.074,314.552h8.023
			v-8.024h-8.023V314.552z M620.715,330.891h17.031v-8.024h-17.031V330.891z M697.11,372.837l-10.352,13.968h10.352V372.837z
			 M701.11,436.189h142.109v-45.961l-3.142-75.585h-9.035l-2.56,78.891l-40.346-22.468v22.395l-48.035-24.57v-50.337H701.11V436.189
			z M685.719,371.176v10.311l11.391-15.368v-10.311L685.719,371.176z M653.711,330.9h14.48l-2.723-73.568h-9.035L653.711,330.9z
			 M681.719,334.9h-61.004v100.461h61.004V334.9z M697.11,398.829v-8.024h-11.391v8.024H697.11z"/>
	</g>
	<g>
		<g>
			<polygon fill="#148FCF" points="1375.652,384.193 1348.799,384.193 1321.947,384.193 1295.094,384.193 1295.094,399.538 
				1321.947,399.538 1348.799,399.538 1375.652,399.538 1402.505,399.538 1402.505,384.193 			"/>
			<g>
				
					<rect x="1381.406" y="378.439" transform="matrix(-1.836970e-16 1 -1 -1.836970e-16 1780.9443 -997.2129)" fill="#EFAB1F" width="15.344" height="26.853"/>
				
					<rect x="1354.554" y="378.439" transform="matrix(-1.836970e-16 1 -1 -1.836970e-16 1754.0914 -970.36)" opacity="0.7" fill="#EFAB1F" width="15.344" height="26.853"/>
				
					<rect x="1327.701" y="378.439" transform="matrix(-1.836970e-16 1 -1 -1.836970e-16 1727.2386 -943.5072)" opacity="0.4" fill="#EFAB1F" width="15.344" height="26.853"/>
			</g>
		</g>
		<path d="M1405.573,371.74c-0.2-35.366-29.033-64.077-64.446-64.077c-35.157,0-63.828,28.293-64.437,63.307l-24.561,7.483v10.537
			l40.178-4.797h36.736h24.551h58.318L1405.573,371.74z M1341.127,310.732c33.329,0,60.519,26.708,61.339,59.843h-24.345
			c-0.813-24.728-21.182-44.595-46.104-44.595s-45.291,19.867-46.104,44.595h-6.124
			C1280.608,337.44,1307.798,310.732,1341.127,310.732z M1332.112,381.125v-12.276h18.413v12.276H1332.112z M1329.043,365.78v15.344
			h-36.827l-37.019,4.409v-4.807l23.245-7.083h10.512v-1.534c0-23.743,19.317-43.06,43.06-43.06c23.744,0,43.06,19.317,43.06,43.06
			v1.534h28.022l3.808,7.48h-53.313V365.78H1329.043z"/>
	</g>
	<g>
		<g>
			<rect x="1160.938" y="496.141" fill="#E35500" width="23.091" height="94.931"/>
			<g>
				<rect x="1160.938" y="544.614" opacity="0.4" fill="#EFAB1F" width="23.091" height="24.237"/>
				<rect x="1160.938" y="520.377" opacity="0.7" fill="#EFAB1F" width="23.091" height="24.236"/>
				<rect x="1160.938" y="496.141" fill="#EFAB1F" width="23.091" height="24.236"/>
			</g>
		</g>
		<path d="M1123.735,573.112c-9.196,0-16.677,7.481-16.677,16.677s7.481,16.677,16.677,16.677c9.196,0,16.677-7.481,16.677-16.677
			S1132.93,573.112,1123.735,573.112z M1123.735,603.901c-7.781,0-14.111-6.33-14.111-14.111s6.33-14.111,14.111-14.111
			c7.781,0,14.111,6.33,14.111,14.111S1131.516,603.901,1123.735,603.901z M1123.735,580.809c-4.952,0-8.98,4.028-8.98,8.98
			s4.028,8.98,8.98,8.98c4.952,0,8.98-4.028,8.98-8.98S1128.686,580.809,1123.735,580.809z M1123.735,596.203
			c-3.537,0-6.414-2.878-6.414-6.414s2.877-6.414,6.414-6.414c3.537,0,6.414,2.878,6.414,6.414S1127.272,596.203,1123.735,596.203z
			 M1155.806,596.203v-38.486h-2.566v38.486h-5.131v-6.414c0-6.993-2.964-13.302-7.697-17.751v-78.997l-10.252,10.267v62.973
			c-2.048-0.561-4.201-0.866-6.425-0.866c-8.184,0-15.437,4.057-19.859,10.263h-14.778v-16.677v-1.283v-7.657h-13.558
			c-3.842,0-6.967-3.126-6.967-6.967v-18.136h-7.697v-28.817h36.817c7.977,0,14.468,6.446,14.468,14.368v49.503l-3.242,1.446
			l-13.195-25.174l5.965-3.296l-1.241-2.245l-14.25,7.876l1.241,2.245l6.039-3.338l14.287,27.256l6.962-3.104v-51.168
			c0-9.338-7.641-16.934-17.033-16.934h-39.126c-4.46,0-7.954,3.494-7.954,7.954v56.189h-12.828v33.354h7.768
			c-0.039,0.423-0.062,0.85-0.062,1.283c0,1.334,0.193,2.624,0.546,3.849h-8.252v2.566h9.278c2.375,4.564,7.197,7.697,12.75,7.697
			c5.554,0,10.375-3.133,12.75-7.697h29.365v-2.566h-28.339c0.353-1.224,0.546-2.514,0.546-3.849c0-0.433-0.023-0.86-0.062-1.283
			h27.855v-1.283c0-12.026,9.783-21.809,21.808-21.809c12.025,0,21.809,9.783,21.809,21.809v6.414v1.283v1.283h46.183v-2.566
			H1155.806z M1075.539,552.626h10.993v5.091h-25.657v-30.195h5.131v15.57C1066.006,548.35,1070.283,552.626,1075.539,552.626z
			 M1053.178,501.529c0-2.935,2.235-5.245,5.131-5.376v28.804v1.283v31.478h-5.131V501.529z M1059.811,603.901
			c-6.482,0-11.756-5.18-11.756-11.546s5.274-11.546,11.756-11.546c6.482,0,11.756,5.18,11.756,11.546
			S1066.293,603.901,1059.811,603.901z M1099.394,588.506h-25.807c-1.705-5.916-7.233-10.263-13.776-10.263
			c-6.543,0-12.071,4.347-13.776,10.263h-5.686v-28.223h46.183v17.96h15.746C1100.611,581.328,1099.586,584.808,1099.394,588.506z
			 M1132.726,504.368l5.12-5.128v70.694c-1.578-1.125-3.295-2.066-5.12-2.793V504.368z M1059.49,585.941
			c-3.537,0-6.414,2.878-6.414,6.414s2.877,6.414,6.414,6.414c3.537,0,6.414-2.878,6.414-6.414S1063.027,585.941,1059.49,585.941z
			 M1059.49,596.203c-2.122,0-3.849-1.726-3.849-3.849c0-2.122,1.726-3.849,3.849-3.849c2.122,0,3.849,1.726,3.849,3.849
			C1063.339,594.477,1061.613,596.203,1059.49,596.203z"/>
	</g>
	<g>
		<path fill="#EFAB1F" d="M539.151,135.564"/>
		<line fill="#EFAB1F" x1="566.476" y1="108.24" x2="557.023" y2="117.692"/>
		<line fill="#A7A13D" x1="574.905" y1="99.811" x2="574.905" y2="99.811"/>
		<g>
			<path d="M443.423,81.59l-2.234-2.234c20.586-20.587,47.958-31.925,77.073-31.925v3.159
				C489.992,50.591,463.413,61.6,443.423,81.59z M518.262,75.866v-3.159c-22.363,0-43.388,8.709-59.201,24.522l2.234,2.234
				C476.512,84.246,496.743,75.866,518.262,75.866z M518.262,101.141v-3.159c-15.612,0-30.289,6.08-41.329,17.119l2.234,2.234
				C489.611,106.892,503.494,101.141,518.262,101.141z M518.262,126.416v-3.159c-8.861,0-17.192,3.451-23.457,9.716l2.234,2.234
				C502.708,129.538,510.245,126.416,518.262,126.416z M518.262,151.691v-3.159c-2.074,0-4.024,0.808-5.49,2.274l2.235,2.233
				C515.877,152.169,517.032,151.691,518.262,151.691z"/>
			<g>
				<path fill="#4FB81C" d="M539.08,49.454l-0.029,0.149l0.014-0.152c-6.731-1.321-13.684-2.02-20.802-2.02v28.434v25.275v25.275
					v12.638v12.637c1.315,0,2.504,0.536,3.362,1.4l8.936-8.936l1.704-1.704l1.894-1.894l4.992-4.992l17.872-17.872l9.453-9.453
					l8.429-8.429l20.106-20.106C580.131,64.509,560.778,53.716,539.08,49.454z M521.6,139.377l0.042-0.216l0-0.001L521.6,139.377z"
					/>
				<g>
					<path fill="#EFAB1F" d="M574.905,99.811l20.106-20.106c-14.88-15.195-34.233-25.989-55.931-30.25l-0.029,0.149l0.014-0.152
						c-6.731-1.321-13.684-2.02-20.802-2.02v28.434C540.481,75.866,560.553,85.044,574.905,99.811z"/>
					<path opacity="0.7" fill="#EFAB1F" d="M566.476,108.24l8.429-8.429c-14.352-14.767-34.424-23.945-56.642-23.945v25.275
						c15.239,0,28.985,6.357,38.761,16.552L566.476,108.24z"/>
					<path opacity="0.4" fill="#EFAB1F" d="M539.151,135.564l17.872-17.872c-9.775-10.194-23.521-16.552-38.761-16.552v25.275
						C526.522,126.416,533.956,129.941,539.151,135.564z"/>
				</g>
			</g>
		</g>
	</g>
	<g>
		<path fill="#E35500" d="M97.815,353.557v-4.229c2.327,0.058,4.203,1.965,4.203,4.306c0,2.377-1.934,4.311-4.311,4.311
			c-1.135,0-2.166-0.444-2.937-1.164l3.404-1.983l-0.632-1.084L97.815,353.557z M50.433,380.913l4.955-2.861l0.73,1.252
			l36.105-21.039c1.319,1.559,3.287,2.553,5.484,2.553c3.962,0,7.185-3.223,7.185-7.185c0-3.925-3.166-7.121-7.077-7.18V316.99
			h1.329v-12.215h-1.329v-5.745c30.061,0.059,54.499,24.53,54.499,54.604c0,30.11-24.497,54.607-54.607,54.607
			C77.529,408.241,59.886,397.232,50.433,380.913z M146.566,352.197h-12.215v2.874h12.215V352.197z M128.723,334.068l1.437,2.489
			l10.578-6.107l-1.437-2.489L128.723,334.068z M128.723,373.201l10.578,6.107l1.437-2.49l-10.578-6.107L128.723,373.201z
			 M114.784,321.181l2.49,1.437l6.107-10.578l-2.49-1.437L114.784,321.181z M114.784,386.087l6.107,10.578l2.49-1.437l-6.107-10.578
			L114.784,386.087z M96.27,402.493h2.874v-12.215H96.27V402.493z M72.033,395.228l2.489,1.437l6.107-10.578l-2.489-1.437
			L72.033,395.228z M97.707,422.252c37.836,0,68.617-30.782,68.617-68.618c0-37.8-30.723-68.558-68.509-68.616v11.138
			c31.646,0.059,57.373,25.819,57.373,57.478c0,31.695-25.786,57.481-57.481,57.481c-21.239,0-39.811-11.588-49.762-28.765
			l-9.653,5.573C50.171,408.427,72.353,422.252,97.707,422.252z"/>
		<path fill="#EFAB1F" d="M97.815,299.03v5.745h1.329v12.215h-1.329v29.464c2.604,0.039,4.871,1.472,6.1,3.581l25.52-14.734
			l-0.712-1.233l10.578-6.107l0.712,1.233l4.955-2.861C135.529,310.057,117.938,299.069,97.815,299.03z M117.274,322.618
			l-2.49-1.437l6.107-10.578l2.49,1.437L117.274,322.618z M157.111,319.322l-9.655,5.574c-9.937-17.135-28.456-28.701-49.641-28.741
			v-11.138C123.114,285.057,145.245,298.86,157.111,319.322z M97.815,353.557v-4.229c1.542,0.039,2.882,0.891,3.614,2.142
			L97.815,353.557z"/>
		<path opacity="0.7" fill="#EFAB1F" d="M144.968,326.333L144.968,326.333l-4.955,2.861l0,0l0.725,1.256l-10.578,6.107l-0.725-1.255
			l0,0l-25.52,14.734l0,0c0.617,1.059,0.978,2.286,0.978,3.599c0,1.265-0.331,2.452-0.907,3.485l25.517,14.732l0.658-1.14
			l10.578,6.107l-0.658,1.14l4.955,2.861c4.62-8.012,7.279-17.291,7.279-27.186C152.314,343.692,149.63,334.371,144.968,326.333z
			 M134.351,355.071v-2.874h12.215v2.874H134.351z M166.324,353.634c0,12.444-3.33,24.124-9.145,34.197l-9.656-5.575
			c4.865-8.435,7.665-18.205,7.665-28.622c0-10.465-2.825-20.277-7.732-28.737l9.655-5.574l0,0
			C162.967,329.422,166.324,341.143,166.324,353.634z M97.815,353.557l3.614-2.086c0.372,0.636,0.59,1.374,0.59,2.163
			c0,0.742-0.188,1.44-0.52,2.05L97.815,353.557z"/>
		<path opacity="0.4" fill="#EFAB1F" d="M97.815,422.25v-11.137c21.233-0.039,39.787-11.658,49.708-28.857l0,0l9.656,5.575l0,0
			C145.33,408.358,123.162,422.21,97.815,422.25z M145.035,380.819c-9.423,16.341-27.049,27.38-47.22,27.419v-5.746h1.329v-12.215
			h-1.329v-29.466c2.651-0.04,4.958-1.518,6.17-3.692l25.517,14.732l-0.779,1.349l10.578,6.107l0.779-1.349l0,0L145.035,380.819
			L145.035,380.819z M123.381,395.228l-6.107-10.578l-2.49,1.437l6.107,10.578L123.381,395.228z M97.815,354.182l0.359,0.616
			l-0.359,0.209v2.93c1.59-0.04,2.97-0.938,3.684-2.254l0,0l-3.684-2.127V354.182z"/>
		<path d="M65.254,336.556l-10.578-6.107l1.437-2.489l10.578,6.107L65.254,336.556z M61.063,352.197H48.848v2.874h12.215V352.197z
			 M80.629,321.181l-6.107-10.578l-2.489,1.437l6.107,10.578L80.629,321.181z M80.629,386.087l-2.489-1.437l-6.107,10.578
			l2.489,1.437L80.629,386.087z M96.27,316.99h1.545h1.329v-12.215h-1.329H96.27V316.99z M114.784,321.181l2.49,1.437l6.107-10.578
			l-2.49-1.437L114.784,321.181z M134.351,352.197v2.874h12.215v-2.874H134.351z M128.723,334.068l0.712,1.233l0,0l0.725,1.255
			l10.578-6.107l-0.725-1.256l0,0l-0.712-1.233L128.723,334.068z M96.27,402.493h1.545h1.329v-12.215h-1.329H96.27V402.493z
			 M114.784,386.087l6.107,10.578l2.49-1.437l-6.107-10.578L114.784,386.087z M130.16,370.711l-0.658,1.14l0,0l-0.779,1.349
			l10.578,6.107l0.779-1.349l0,0l0.658-1.14L130.16,370.711z M103.985,357.119L103.985,357.119c-1.212,2.174-3.519,3.652-6.17,3.692
			c-0.037,0.001-0.071,0.007-0.108,0.007c-2.197,0-4.165-0.994-5.484-2.553l-36.105,21.039l-0.73-1.252l-0.717-1.23l36.169-21.076
			c-0.206-0.668-0.318-1.377-0.318-2.112c0-3.962,3.223-7.185,7.185-7.185c0.036,0,0.072,0.005,0.108,0.005
			c2.604,0.039,4.871,1.472,6.1,3.581c0.617,1.059,0.978,2.286,0.978,3.599C104.892,354.898,104.561,356.086,103.985,357.119z
			 M101.499,355.684c0.331-0.61,0.52-1.308,0.52-2.05c0-0.789-0.217-1.527-0.59-2.163c-0.731-1.251-2.072-2.104-3.614-2.142
			c-0.036-0.001-0.072-0.005-0.108-0.005c-2.377,0-4.311,1.934-4.311,4.311c0,0.203,0.019,0.4,0.046,0.595l3.285-1.914l0.815,1.399
			l0.273,0.468l0.359,0.616l-0.359,0.209l-3.045,1.774c0.771,0.72,1.802,1.164,2.937,1.164c0.037,0,0.072-0.007,0.108-0.008
			C99.404,357.898,100.785,356.999,101.499,355.684L101.499,355.684z M97.707,282.142v2.874c0.036,0,0.072,0.001,0.108,0.001
			c25.299,0.039,47.43,13.842,59.296,34.305c5.856,10.1,9.213,21.82,9.213,34.311c0,12.444-3.33,24.124-9.145,34.197l0,0
			c-11.849,20.527-34.017,34.379-59.364,34.419c-0.036,0-0.072,0.002-0.108,0.002c-25.354,0-47.536-13.825-59.415-34.329
			c-5.563-9.603-8.87-20.669-9.178-32.47l3.315,3.73l2.148-1.91l-6.822-7.674l-6.822,7.674l2.148,1.91l3.164-3.559
			c1.057,38.504,32.707,69.503,71.462,69.503c39.42,0,71.491-32.071,71.491-71.492S137.127,282.142,97.707,282.142z
			 M147.523,382.256L147.523,382.256c4.865-8.435,7.665-18.205,7.665-28.622c0-10.465-2.825-20.277-7.732-28.737
			c-9.937-17.135-28.456-28.701-49.641-28.741c-0.036,0-0.072-0.003-0.108-0.003c-31.695,0-57.481,25.786-57.481,57.481
			c0,10.456,2.82,20.259,7.719,28.715c9.951,17.177,28.523,28.765,49.762,28.765c0.036,0,0.072-0.002,0.108-0.002
			C119.048,411.073,137.602,399.455,147.523,382.256z M97.815,408.239c-0.036,0-0.072,0.002-0.108,0.002
			c-20.178,0-37.821-11.009-47.274-27.328c-4.654-8.033-7.333-17.346-7.333-27.279c0-30.11,24.496-54.607,54.607-54.607
			c0.036,0,0.072,0.003,0.108,0.003c20.123,0.039,37.714,11.027,47.153,27.303c4.662,8.038,7.346,17.359,7.346,27.301
			c0,9.894-2.659,19.174-7.279,27.186l0,0C135.612,397.16,117.986,408.199,97.815,408.239z"/>
	</g>
	<g>
		<path fill="#4FB81C" d="M387.522,313.054l0.03-22.525c0.004-3.021,2.457-5.467,5.478-5.463l37.8,0.051
			c3.049,0.004,5.507,2.5,5.463,5.549l-0.317,22.095L387.522,313.054z"/>
		<polygon opacity="0.4" fill="#EFAB1F" points="411.8,312.907 424.514,312.83 424.9,285.109 412.188,285.092 		"/>
		<polygon opacity="0.7" fill="#EFAB1F" points="399.085,312.984 411.799,312.907 412.187,285.092 399.475,285.074 		"/>
		<path fill="#EFAB1F" d="M399.473,285.074l-6.442-0.009c-3.021-0.004-5.474,2.442-5.478,5.463l-0.03,22.525l11.562-0.07
			L399.473,285.074z"/>
		<g>
			<path d="M432.223,311.59l-40.751-0.055h-0.012c-2.313,0-4.488,0.899-6.126,2.533c-1.641,1.636-2.546,3.814-2.549,6.131
				l-0.127,94.142c-0.006,4.784,3.88,8.681,8.664,8.688l1.989,0.003c0.281,1.931,1.159,3.716,2.562,5.123
				c1.725,1.729,4.019,2.683,6.461,2.686l18.59,0.025c0.004,0,0.008,0,0.013,0c2.438,0,4.73-0.948,6.457-2.669
				c1.407-1.403,2.289-3.187,2.576-5.117l2.103,0.003h0.013c2.312,0,4.488-0.899,6.126-2.532c1.641-1.636,2.546-3.814,2.55-6.131
				l0.127-94.142C440.893,315.493,437.007,311.596,432.223,311.59z M427.213,421.731c-0.002,1.677-0.657,3.252-1.844,4.435
				c-1.185,1.182-2.758,1.832-4.432,1.832c-0.003,0-0.006,0-0.008,0l-18.591-0.025c-1.676-0.002-3.251-0.657-4.435-1.844
				c-1.184-1.186-1.834-2.763-1.832-4.439l0.078-57.912c0.012-8.579,6.994-15.55,15.571-15.55c0.007,0,0.014,0,0.021,0
				c8.586,0.012,15.562,7.006,15.55,15.592L427.213,421.731z M437.893,414.415c-0.004,3.201-2.609,5.801-5.808,5.801h-0.008
				l-1.995-0.003l0.076-56.39c0.013-10.166-8.246-18.449-18.413-18.463c-0.009,0-0.016,0-0.025,0
				c-10.154,0-18.424,8.255-18.438,18.413l-0.076,56.39l-1.881-0.003c-3.203-0.004-5.805-2.614-5.801-5.817l0.127-94.142
				c0.004-3.2,2.609-5.801,5.809-5.801h0.008l40.75,0.055c3.203,0.005,5.806,2.614,5.801,5.816L437.893,414.415z"/>
			<path d="M406.571,359.777c-2.838,2.831-2.845,7.444-0.014,10.282c1.371,1.375,3.196,2.134,5.138,2.137c0.003,0,0.007,0,0.01,0
				c1.939,0,3.761-0.754,5.134-2.123c2.839-2.831,2.845-7.443,0.014-10.282C414.023,356.951,409.41,356.948,406.571,359.777z
				 M414.816,368.044c-0.831,0.829-1.936,1.286-3.11,1.286c-0.002,0-0.004,0-0.006,0c-1.177-0.001-2.282-0.461-3.113-1.294
				c-1.715-1.72-1.711-4.514,0.008-6.228c0.858-0.855,1.984-1.283,3.11-1.283c1.13,0,2.26,0.43,3.118,1.291
				C416.539,363.535,416.535,366.329,414.816,368.044z"/>
			<path d="M427.414,293.733l-10.839-0.015l-0.015,10.839l10.839,0.015L427.414,293.733z M424.537,301.701l-5.105-0.007l0.006-5.105
				l5.105,0.007L424.537,301.701z"/>
			<path d="M407.455,293.641l-10.839-0.015l-0.015,10.839l10.839,0.015L407.455,293.641z M404.577,301.609l-5.105-0.007l0.007-5.105
				l5.105,0.007L404.577,301.609z"/>
			<rect x="410.464" y="381.504" width="2.867" height="31.07"/>
		</g>
	</g>
	<g>
		<path d="M369.056,478.917h-11.999v-23.999h11.999V478.917z M360.056,475.918h6v-17.999h-6V475.918z M300.06,478.917H288.06
			v-23.999h11.999V478.917z M291.06,475.918h6v-17.999h-6V475.918z M397.555,496.916h-2.99v4.95v97.135h-132.01v-97.135v-4.95
			h-2.992h-0.008v105.084h138.01V496.916H397.555z M274.935,509.302v32.885h0.007h0.159h2.834v-0.005h11.939v0.005h0.167h0.74h2.094
			v-0.005h11.939v0.005h0.167h2.834v-0.005h11.939v0.005h0.168h2.834v-0.005h11.939v0.005h0.167h2.834v-0.005h11.939v11.939h-0.001
			v0.006h-2.834h-15.839h-2.834h-15.84h-2.834h-15.84h-2.834h-15.84h-0.007v32.876h107.584v-77.7H274.935z M289.874,539.179h-11.939
			V527.24h11.939V539.179z M289.874,524.24h-11.939v-11.939h11.939V524.24z M304.814,539.179h-11.939V527.24h11.939V539.179z
			 M304.814,524.24h-11.939v-11.939h11.939V524.24z M319.755,539.179h-11.939V527.24h11.939V539.179z M319.755,524.24h-11.939
			v-11.939h11.939V524.24z M334.696,539.179h-11.939V527.24h11.939V539.179z M334.696,524.24h-11.939v-11.939h11.939V524.24z
			 M289.874,584.002h-11.939v-11.939h11.939V584.002z M289.874,569.061h-11.939v-11.939h11.939V569.061z M304.814,584.002h-11.939
			v-11.939h11.939V584.002z M304.814,569.061h-11.939v-11.939h11.939V569.061z M319.755,584.002h-11.939v-11.939h11.939V584.002z
			 M319.755,569.061h-11.939v-11.939h11.939V569.061z M334.696,584.002h-11.939v-11.939h11.939V584.002z M334.696,569.061h-11.939
			v-11.939h11.939V569.061z M349.637,584.002h-11.939v-11.939h11.939V584.002z M349.637,569.061h-11.939v-11.939h11.939V569.061z
			 M349.637,539.179h-11.939V527.24h11.939V539.179z M349.637,524.24h-11.939v-11.939h11.939V524.24z M364.578,584.002h-11.939
			v-11.939h11.939V584.002z M364.578,569.061h-11.939v-11.939h11.939V569.061z M364.578,554.12h-11.939v-11.939h11.939V554.12z
			 M364.578,539.179h-11.939V527.24h11.939V539.179z M364.578,524.24h-11.939v-11.939h11.939V524.24z M379.519,584.002h-11.939
			v-11.939h11.939V584.002z M379.519,569.061h-11.939v-11.939h11.939V569.061z M379.519,554.12h-11.939v-11.939h11.939V554.12z
			 M379.519,539.179h-11.939V527.24h11.939V539.179z M379.519,524.24h-11.939v-11.939h11.939V524.24z"/>
		<path fill="#148FCF" d="M349.635,542.186v11.933v0.006h-18.673h-18.674h-18.674h-18.673v-11.939h2.993h11.939h3.001h0.74h11.2
			h3.001h4.473h7.466h3.002h8.206h3.734h3.001H349.635z M262.554,496.916h31.506h34.498h34.498h31.508h2.99v-27.065v-0.308h-28.499
			v0.308v3v6.066h-5.999h-6v-6.066v-3v-0.308h-28.498H300.06v0.308v3v6.066h-5.999h-6v-6.066v-3v-0.308h-28.498v0.308v27.065
			H262.554z"/>
		<path fill="#EFAB1F" d="M397.555,469.543v27.373h-34.498v-17.999h5.999v-9.374H397.555z M330.962,542.186v11.939h18.673v-11.939
			H330.962z"/>
		<path opacity="0.7" fill="#EFAB1F" d="M330.962,542.186v11.939h-18.673v-11.939H330.962z M357.056,478.917v-9.374h-28.498v27.373
			h34.498v-17.999H357.056z"/>
		<path opacity="0.4" fill="#EFAB1F" d="M328.559,469.543v27.373h-34.498v-17.999h5.999v-9.374H328.559z M293.615,542.186v11.939
			h18.674v-11.939H293.615z"/>
	</g>
	
		<line fill="none" stroke="#000000" stroke-width="2" stroke-miterlimit="10" x1="518.262" y1="169.617" x2="518.262" y2="256.934"/>
	
		<line fill="none" stroke="#000000" stroke-width="2" stroke-miterlimit="10" x1="616.715" y1="292.068" x2="436.294" y2="227.683"/>
	
		<line fill="none" stroke="#000000" stroke-width="2" stroke-miterlimit="10" x1="506.807" y1="252.846" x2="452.422" y2="310.214"/>
	<line fill="none" stroke="#000000" stroke-width="2" stroke-miterlimit="10" x1="598.846" y1="437.35" x2="418.425" y2="501.736"/>
	
		<line fill="none" stroke="#000000" stroke-width="2" stroke-miterlimit="10" x1="518.262" y1="466.107" x2="518.262" y2="524.799"/>
	<line fill="none" stroke="#000000" stroke-width="2" stroke-miterlimit="10" x1="542.37" y1="457.377" x2="452.62" y2="375.416"/>
	
		<line fill="none" stroke="#000000" stroke-width="2" stroke-miterlimit="10" x1="179.917" y1="367.309" x2="366.056" y2="367.309"/>
	<line fill="none" stroke="#000000" stroke-width="2" stroke-miterlimit="10" x1="271.56" y1="253.332" x2="271.56" y2="367.096"/>
	<line fill="none" stroke="#000000" stroke-width="2" stroke-miterlimit="10" x1="326.56" y1="367.096" x2="326.56" y2="454.919"/>
	<line fill="none" stroke="#000000" stroke-width="2" stroke-miterlimit="10" x1="916.56" y1="173.19" x2="916.56" y2="277.067"/>
	
		<line fill="none" stroke="#000000" stroke-width="2" stroke-miterlimit="10" x1="861.593" y1="304.464" x2="1033.043" y2="219.01"/>
	
		<line fill="none" stroke="#000000" stroke-width="2" stroke-miterlimit="10" x1="962.019" y1="254.41" x2="1003.231" y2="292.045"/>
	
		<line fill="none" stroke="#000000" stroke-width="2" stroke-miterlimit="10" x1="859.107" y1="445.462" x2="1039.528" y2="509.847"/>
	
		<line fill="none" stroke="#000000" stroke-width="2" stroke-miterlimit="10" x1="939.691" y1="474.219" x2="939.691" y2="544.614"/>
	
		<line fill="none" stroke="#000000" stroke-width="2" stroke-miterlimit="10" x1="915.583" y1="465.488" x2="980.699" y2="406.024"/>
	<line fill="none" stroke="#000000" stroke-width="2" stroke-miterlimit="10" x1="731.56" y1="200.19" x2="731.56" y2="282.142"/>
	<line fill="none" stroke="#000000" stroke-width="2" stroke-miterlimit="10" x1="731.56" y1="454.919" x2="731.56" y2="561.244"/>
	
		<line fill="none" stroke="#000000" stroke-width="2" stroke-miterlimit="10" x1="1118.917" y1="367.309" x2="1240.553" y2="367.309"/>
	
		<line fill="none" stroke="#000000" stroke-width="2" stroke-miterlimit="10" x1="1160.559" y1="246.593" x2="1160.559" y2="367.096"/>
	
		<line fill="none" stroke="#000000" stroke-width="2" stroke-miterlimit="10" x1="1135.559" y1="367.096" x2="1135.559" y2="478.917"/>
	<g>
	</g>
	<g>
	</g>
	<g>
	</g>
	<g>
	</g>
	<g>
	</g>
	<g>
	</g>
</g>
</svg>
