<svg width="31" height="31" viewBox="0 0 31 31" fill="none" xmlns="http://www.w3.org/2000/svg">
<path id="Vector" d="M31 0.115364C30.8887 0.348447 30.7679 0.579175 30.666 0.816967C26.4571 10.7948 22.2481 20.7726 18.0439 30.7528C17.9657 30.9388 17.8686 31 17.6672 31C14.6094 30.9929 11.5492 30.9929 8.49137 31C8.29714 31 8.19055 30.9458 8.09818 30.7669C5.44063 25.6768 2.77361 20.589 0.111324 15.5012C0.0734263 15.4305 0.0473716 15.3529 0 15.2422H0.338713C2.64097 15.2422 4.94086 15.2375 7.24313 15.2422C8.1953 15.2422 8.91534 15.6542 9.363 16.5018C10.1896 18.0627 11.0186 19.6237 11.8334 21.1917C11.9021 21.3259 11.9069 21.5189 11.8761 21.6743C11.4758 23.7768 11.0613 25.8769 10.6515 27.977C10.642 28.0241 10.6373 28.0688 10.6278 28.1253C10.8339 28.2477 10.8836 28.0994 10.9381 27.9534C11.3881 26.788 11.8405 25.6226 12.2906 24.4596C15.1968 16.9444 18.1031 9.42926 21.0069 1.9141C21.4736 0.71102 22.4257 0.0400243 23.7261 0.0306068C26.1491 0.0141262 28.5746 0.00941748 30.9976 0V0.115364H31Z" fill="#FECB44"/>
</svg>
