<svg width="136" height="33" viewBox="0 0 136 33" fill="none" xmlns="http://www.w3.org/2000/svg">
<path d="M135.087 0.12043C134.972 0.363749 134.847 0.60461 134.741 0.852844C130.382 11.2689 126.022 21.6849 121.667 32.1033C121.586 32.2975 121.485 32.3614 121.277 32.3614C118.109 32.354 114.94 32.354 111.772 32.3614C111.571 32.3614 111.461 32.3049 111.365 32.1181C108.612 26.8044 105.85 21.4932 103.092 16.1819C103.053 16.1082 103.026 16.0271 102.977 15.9116H103.327C105.712 15.9116 108.094 15.9067 110.479 15.9116C111.465 15.9116 112.211 16.3417 112.675 17.2265C113.531 18.856 114.39 20.4855 115.234 22.1223C115.305 22.2624 115.31 22.464 115.278 22.6262C114.863 24.821 114.434 27.0133 114.01 29.2056C114 29.2548 113.995 29.3015 113.985 29.3605C114.199 29.4883 114.25 29.3334 114.307 29.181C114.773 27.9644 115.241 26.7479 115.707 25.5337C118.718 17.6885 121.728 9.84335 124.736 1.99816C125.219 0.742245 126.206 0.041782 127.553 0.0319509C130.063 0.0147466 132.575 0.00983106 135.085 0V0.12043H135.087Z" fill="#FECB44"/>
<path d="M32.7678 32.4768C32.309 32.3883 31.8453 32.3219 31.3939 32.2064C28.2804 31.3978 26.2907 29.3824 25.2455 26.3913C24.5659 24.4497 24.4604 22.4417 24.6837 20.4091C24.8922 18.5044 25.4762 16.7274 26.6121 15.1741C28.5896 12.4681 31.3006 11.3302 34.6103 11.5538C36.1903 11.6619 37.6575 12.1338 38.8965 13.1415C39.4289 13.5741 39.8558 14.1394 40.3244 14.6481C40.3931 14.7243 40.4422 14.8177 40.5599 14.8939V12.0576H45.6336V32.1499H40.5746V29.0506C40.4912 29.1391 40.4495 29.1711 40.4225 29.2128C39.2424 31.0316 37.5201 31.9877 35.4273 32.3588C35.2286 32.3932 35.0299 32.435 34.8287 32.4718H32.7678V32.4768ZM29.7746 22.4048C29.8114 22.7538 29.8457 23.4101 29.9561 24.0565C30.1745 25.332 30.6701 26.4798 31.6613 27.3597C32.7899 28.36 34.1491 28.6328 35.6015 28.5566C37.8194 28.4411 39.3283 27.3154 40.0594 25.2386C40.7979 23.1397 40.7611 20.9965 40.0987 18.8829C39.7061 17.6245 38.9431 16.6193 37.7434 15.9999C36.8945 15.5624 35.9843 15.4297 35.0397 15.4469C33.0131 15.4838 31.519 16.3759 30.5916 18.1898C29.9635 19.4162 29.8114 20.7458 29.777 22.4048H29.7746Z" fill="#032E4E"/>
<path d="M84.2671 32.4762C83.7567 32.4025 83.2415 32.3509 82.7361 32.2501C79.841 31.6701 77.9715 29.6473 77.6182 26.7079C77.5446 26.0959 77.5054 25.4765 77.5029 24.8621C77.4907 21.9668 77.498 19.074 77.498 16.1788V15.8028H73.5234V12.0473H79.895C79.9024 12.0129 79.9097 11.9785 79.9171 11.9441C79.132 11.6688 78.3101 11.5164 77.5103 11.2608V7.1416H82.6625V12.0375H88.1558V15.7978H82.6969C82.6846 15.8642 82.6674 15.9109 82.6674 15.9551C82.6674 19.0347 82.6674 22.1168 82.6846 25.1963C82.6846 25.5724 82.768 25.9582 82.876 26.322C83.2243 27.4821 84.1542 28.1801 85.4251 28.2956C86.2445 28.3718 87.0493 28.2931 87.8442 28.0891C87.9276 28.067 88.0135 28.0523 88.119 28.0277C88.1263 28.1186 88.1386 28.1924 88.1386 28.2685C88.1386 29.4163 88.1337 30.5641 88.146 31.7119C88.146 31.9208 88.0822 32.0215 87.8859 32.056C87.1818 32.1764 86.4801 32.2968 85.7784 32.4197C85.6852 32.4345 85.5944 32.4566 85.5036 32.4738H84.2671V32.4762Z" fill="#032E4E"/>
<path d="M50.9009 12.0598H55.7293C55.8495 13.1093 55.9697 14.1636 56.0948 15.2746C56.166 15.1836 56.2126 15.1295 56.2518 15.073C57.6626 12.9421 59.6719 11.8263 62.1867 11.5707C63.4772 11.4404 64.753 11.5314 65.9969 11.905C68.259 12.5858 69.5765 14.1587 70.1899 16.3855C70.4965 17.4988 70.602 18.6392 70.602 19.7895C70.6069 23.8128 70.602 27.8337 70.602 31.8571C70.602 31.9529 70.5947 32.0488 70.5898 32.1545H65.4326V31.7932C65.4326 27.8485 65.4473 23.9062 65.4204 19.9615C65.4155 19.2438 65.3075 18.5114 65.1284 17.8183C64.8217 16.6263 64.0194 15.8742 62.805 15.6211C61.4728 15.3434 60.1577 15.4269 58.9457 16.0832C57.2627 16.9925 56.4359 18.477 56.3721 20.3523C56.3132 22.117 56.3524 23.8841 56.35 25.6488C56.35 27.6887 56.35 29.7311 56.35 31.7711C56.35 31.889 56.35 32.0046 56.35 32.1471H51.2296V31.7686C51.2296 27.3348 51.2296 22.8985 51.2296 18.4647C51.2296 16.3363 51.1683 14.2103 50.8984 12.0598H50.9009Z" fill="#032E4E"/>
<path d="M0.90625 12.074C1.05346 12.074 1.14669 12.074 1.24237 12.074C2.8322 12.074 4.41958 12.0814 6.00941 12.0666C6.25966 12.0666 6.36271 12.1551 6.45348 12.3738C8.34754 16.9649 10.2465 21.5511 12.1455 26.1398C12.1823 26.2282 12.2215 26.3143 12.2829 26.4494C12.3393 26.3364 12.3785 26.2676 12.4104 26.1938C14.3536 21.6027 16.2967 17.0116 18.2276 12.4156C18.3404 12.1453 18.4778 12.0617 18.7649 12.0666C20.2173 12.0838 21.6673 12.074 23.1197 12.074H23.4902C23.4436 12.1969 23.4166 12.2829 23.3798 12.3665C20.4258 18.8771 17.4694 25.3877 14.5229 31.9032C14.4247 32.1195 14.3119 32.181 14.0837 32.1785C12.7785 32.1662 11.4732 32.1687 10.1704 32.1785C9.96681 32.1785 9.86132 32.122 9.77545 31.9278C7.04722 25.8006 4.30672 19.6758 1.56623 13.5511C1.35523 13.0768 1.14178 12.6049 0.90625 12.074Z" fill="#032E4E"/>
<path d="M96.8985 12.0645V32.1468H91.8125V12.0645H96.8985Z" fill="#032E4E"/>
<path d="M91.2578 6.39698C91.2578 4.72324 92.617 3.39359 94.332 3.38868C96.0347 3.38622 97.4356 4.73799 97.4356 6.38469C97.4356 8.03877 96.0543 9.36596 94.3295 9.36596C92.6146 9.36596 91.2578 8.05597 91.2578 6.39698Z" fill="#032E4E"/>
</svg>
