<svg width="40" height="36" viewBox="0 0 40 36" fill="none" xmlns="http://www.w3.org/2000/svg">
<path fill-rule="evenodd" clip-rule="evenodd" d="M18.9269 4.85768C19.038 4.67219 19.1952 4.51866 19.3833 4.41205C19.5713 4.30545 19.7838 4.24941 20 4.24941C20.2162 4.24941 20.4287 4.30545 20.6167 4.41205C20.8048 4.51866 20.962 4.67219 21.0731 4.85768L36.0587 29.8638C36.1725 30.0536 36.2338 30.2702 36.2365 30.4914C36.2392 30.7127 36.1831 30.9307 36.074 31.1232C35.9649 31.3158 35.8067 31.4759 35.6155 31.5873C35.4243 31.6987 35.2069 31.7573 34.9856 31.7573L5.00936 31.7573C4.78786 31.7578 4.57021 31.6994 4.37865 31.5882C4.18709 31.477 4.02851 31.3169 3.91911 31.1243C3.80971 30.9317 3.75342 30.7135 3.756 30.4921C3.75857 30.2706 3.81992 30.0538 3.93377 29.8638L18.9269 4.85768ZM24.2898 2.93163C22.3513 -0.310129 17.6512 -0.310129 15.7102 2.92913L0.719527 27.9327C-1.27906 31.267 1.12225 35.5068 5.01186 35.5068L34.9881 35.5068C38.8777 35.5093 41.2791 31.2695 39.2805 27.9352L24.2898 2.93163ZM17.4986 26.7546C17.4986 27.418 17.7622 28.0542 18.2313 28.5233C18.7004 28.9924 19.3366 29.2559 20 29.2559C20.6634 29.2559 21.2996 28.9924 21.7687 28.5233C22.2378 28.0542 22.5014 27.418 22.5014 26.7546C22.5014 26.0912 22.2378 25.4549 21.7687 24.9858C21.2996 24.5167 20.6634 24.2532 20 24.2532C19.3366 24.2532 18.7004 24.5167 18.2313 24.9858C17.7622 25.4549 17.4986 26.0912 17.4986 26.7546ZM18.124 12.3718C18.124 11.8742 18.3216 11.397 18.6735 11.0452C19.0253 10.6934 19.5024 10.4957 20 10.4957C20.4976 10.4957 20.9747 10.6934 21.3265 11.0452C21.6784 11.397 21.876 11.8742 21.876 12.3718L21.876 19.8758C21.876 20.3734 21.6784 20.8506 21.3265 21.2024C20.9747 21.5542 20.4976 21.7519 20 21.7519C19.5024 21.7519 19.0253 21.5542 18.6735 21.2024C18.3216 20.8506 18.124 20.3734 18.124 19.8758L18.124 12.3718Z" fill="#113455"/>
</svg>
